<svg width="26" height="26" viewBox="0 0 26 26" fill="none" xmlns="http://www.w3.org/2000/svg">
<path fill-rule="evenodd" clip-rule="evenodd" d="M21.5767 16.1182C22.0578 14.0672 22.0578 11.9328 21.5767 9.88185C20.9414 7.17341 18.8266 5.05862 16.1182 4.42331C14.0672 3.94223 11.9328 3.94223 9.88184 4.42331C7.1734 5.05862 5.05863 7.17341 4.42336 9.88185C3.94225 11.9328 3.94225 14.0672 4.42336 16.1182C5.05863 18.8266 7.1734 20.9414 9.88184 21.5766C11.9328 22.0577 14.0672 22.0577 16.1182 21.5766C18.8266 20.9414 20.9414 18.8266 21.5767 16.1182ZM23.1587 9.51075C23.6971 11.8057 23.6971 14.1943 23.1587 16.4892C22.3825 19.7986 19.7986 22.3825 16.4892 23.1587C14.1943 23.697 11.8057 23.697 9.5108 23.1587C6.20144 22.3825 3.61747 19.7986 2.84126 16.4892C2.30295 14.1943 2.30295 11.8057 2.84126 9.51075C3.61747 6.20145 6.20144 3.61751 9.51069 2.84126C11.8057 2.30291 14.1943 2.30291 16.4893 2.84126C19.7986 3.61751 22.3825 6.20144 23.1587 9.51075Z" fill="white"/>
<path fill-rule="evenodd" clip-rule="evenodd" d="M12.4912 16.2829C12.1739 16.6002 11.6595 16.6002 11.3422 16.2829L8.63385 13.5746C8.48142 13.4223 8.39584 13.2156 8.39584 13.0001C8.39584 12.7846 8.48142 12.5779 8.63385 12.4256L11.3422 9.71722C11.6595 9.39992 12.1739 9.39992 12.4912 9.71722C12.8085 10.0345 12.8085 10.549 12.4912 10.8662L11.1699 12.1876H16.7917C17.2404 12.1876 17.6042 12.5514 17.6042 13.0001C17.6042 13.4488 17.2404 13.8126 16.7917 13.8126H11.1699L12.4912 15.1339C12.8085 15.4512 12.8085 15.9656 12.4912 16.2829Z" fill="white"/>
</svg>
