<svg width="26" height="26" viewBox="0 0 26 26" fill="none" xmlns="http://www.w3.org/2000/svg">
<path fill-rule="evenodd" clip-rule="evenodd" d="M4.42331 9.88184C3.94223 11.9328 3.94223 14.0672 4.42331 16.1182C5.05862 18.8266 7.1734 20.9414 9.88185 21.5767C11.9328 22.0578 14.0672 22.0578 16.1182 21.5767C18.8266 20.9414 20.9414 18.8266 21.5766 16.1182C22.0577 14.0672 22.0577 11.9328 21.5766 9.88184C20.9414 7.1734 18.8266 5.05863 16.1182 4.42336C14.0672 3.94225 11.9328 3.94225 9.88185 4.42336C7.17341 5.05863 5.05862 7.1734 4.42331 9.88184ZM2.84126 16.4892C2.30291 14.1943 2.30291 11.8057 2.84126 9.5108C3.61751 6.20144 6.20144 3.61747 9.51075 2.84126C11.8057 2.30295 14.1943 2.30295 16.4892 2.84126C19.7986 3.61747 22.3825 6.20144 23.1587 9.5108C23.697 11.8057 23.697 14.1943 23.1587 16.4892C22.3825 19.7985 19.7986 22.3825 16.4893 23.1587C14.1943 23.6971 11.8057 23.6971 9.51074 23.1587C6.20144 22.3825 3.61751 19.7986 2.84126 16.4892Z" fill="white"/>
<path fill-rule="evenodd" clip-rule="evenodd" d="M13.5088 9.7171C13.8261 9.39979 14.3405 9.39979 14.6578 9.7171L17.3661 12.4254C17.5186 12.5777 17.6041 12.7844 17.6041 12.9999C17.6041 13.2154 17.5186 13.4221 17.3661 13.5744L14.6578 16.2828C14.3405 16.6001 13.8261 16.6001 13.5088 16.2828C13.1915 15.9655 13.1915 15.451 13.5088 15.1338L14.8301 13.8124H9.20831C8.75959 13.8124 8.39581 13.4486 8.39581 12.9999C8.39581 12.5512 8.75959 12.1874 9.20831 12.1874H14.8301L13.5088 10.8661C13.1915 10.5488 13.1915 10.0344 13.5088 9.7171Z" fill="white"/>
</svg>
