<svg width="719" height="727" viewBox="0 0 719 727" fill="none" xmlns="http://www.w3.org/2000/svg">
<g clip-path="url(#clip0_1810_1921)">
<path opacity="0.2" d="M608.172 0C608.172 0 491.282 52.6 498.376 150.484C505.47 248.368 417.882 297.189 417.882 297.189V0H608.172Z" fill="url(#paint0_linear_1810_1921)"/>
<path opacity="0.2" d="M718.272 726.401C718.272 726.401 654.436 737.818 623.221 654.111C592.006 570.404 525.336 607.621 496.957 568.447C468.578 529.273 501.292 458.901 482.375 412.469C463.458 366.037 424.13 372.001 424.13 372.001V726.401H718.272Z" fill="url(#paint1_linear_1810_1921)"/>
<path d="M0.359039 0V726.4H611.992C611.992 726.4 581.101 716.63 565.334 659.879C549.567 603.128 528.759 617.629 494.084 610.062C459.409 602.495 455.617 558.987 460.658 515.479C465.699 471.971 489.358 398.668 449.629 379.279C409.9 359.89 386.729 383.062 376.8 398.669C366.871 414.276 338.967 408.979 329.272 420.849C319.577 432.719 318.158 462.986 286 474.572L268.5 473.626C268.5 473.626 297.339 464.565 298.918 442.886C300.497 421.207 288.826 403.87 310.268 397.886C331.71 391.902 352.209 394.1 358.199 363.2C364.189 332.3 364.186 320 388.466 312.759C412.746 305.518 451.837 277.129 460.666 230.471C463.9 213.351 462.266 194.841 459.635 176.019C455.104 143.519 447.623 110.094 457.204 81.341C472.331 35.942 515.839 0 515.839 0H0.359039Z" fill="url(#paint2_linear_1810_1921)"/>
<path d="M460.41 568.446C464.151 589.602 473.866 605.73 493.726 610.063C528.407 617.63 549.215 603.127 564.979 659.877C580.743 716.627 611.641 726.4 611.641 726.4H0V568.446H460.41Z" fill="url(#paint3_linear_1810_1921)"/>
<path d="M0 568.446V540.071H458.541C458.245 549.568 458.871 559.07 460.41 568.446H0Z" fill="url(#paint4_linear_1810_1921)"/>
<mask id="mask0_1810_1921" style="mask-type:luminance" maskUnits="userSpaceOnUse" x="0" y="568" width="612" height="159">
<path d="M460.41 568.446C464.151 589.602 473.866 605.73 493.726 610.063C528.407 617.63 549.215 603.127 564.979 659.877C580.743 716.627 611.641 726.4 611.641 726.4H0V568.446H460.41Z" fill="white"/>
</mask>
<g mask="url(#mask0_1810_1921)">
<path opacity="0.2" d="M611.465 712.708C611.465 712.708 596.019 614.008 416.696 634.379C237.373 654.75 189.523 527.851 42.745 607.746C-104.033 687.641 101.793 765.971 226.484 751.871C351.175 737.771 378.021 708.007 460.295 740.905C542.569 773.803 615.702 750.305 611.465 712.708Z" stroke="white" stroke-miterlimit="10"/>
<path opacity="0.2" d="M536.992 740.906C553.101 740.906 566.822 737.762 575.627 732.053C582.906 727.333 586.382 721.112 585.69 714.053C585.35 712.353 581.649 695.553 565.1 679.389C543.29 658.089 508.881 647.282 462.831 647.282C449.005 647.34 435.193 648.174 421.461 649.782C407.01 651.437 392.477 652.277 377.932 652.297C311.081 652.297 263.238 634.307 221.025 618.435C190.044 606.785 163.288 596.725 135.949 596.725C112.901 596.725 88.068 604.143 60.033 619.403C22.692 639.729 10.076 660.013 22.528 679.695C42.136 710.679 122.954 737.863 195.479 737.866H195.494C204.261 737.893 213.022 737.43 221.737 736.478C260.591 732.084 289.113 726.178 314.278 720.963C341.814 715.263 365.596 710.334 391.263 710.334C418.584 710.334 444.269 715.734 474.544 727.834C495.931 736.385 517.526 740.906 536.992 740.906Z" stroke="white" stroke-miterlimit="10"/>
<path opacity="0.2" d="M536.992 725.24C545.729 725.24 552.923 723.825 556.726 721.359C557.756 720.769 558.6 719.902 559.162 718.856C559.724 717.81 559.981 716.628 559.904 715.443C559.265 712.758 555.67 699.901 543.117 687.643C526.106 671.024 499.843 662.943 462.83 662.943C450.598 663.001 438.379 663.746 426.23 665.173C410.195 667.008 394.07 667.938 377.93 667.958C303.707 667.958 250.299 647.877 207.384 631.742C179.765 621.356 155.914 612.386 135.947 612.386C119.797 612.386 100.073 618.666 77.321 631.051C34.273 654.482 43.609 669.236 46.678 674.085C60.757 696.331 128.822 722.193 195.478 722.196C202.662 722.223 209.843 721.848 216.985 721.073C253.985 716.889 281.559 711.173 305.885 706.138C334.385 700.238 361.29 694.663 391.256 694.663C423.956 694.663 454.032 700.863 488.787 714.757C505.94 721.616 522.608 725.24 536.992 725.24Z" stroke="white" stroke-miterlimit="10"/>
<path opacity="0.2" d="M530.994 709.224C528.446 704.28 525.117 699.778 521.136 695.894C508.899 683.94 490.918 678.608 462.831 678.608C452.193 678.668 441.566 679.323 431.001 680.571C429.382 680.754 427.763 680.93 426.144 681.098C451.336 684.217 476.063 690.898 503.044 701.683C513.152 705.727 522.841 708.326 530.994 709.224ZM195.484 706.533C201.081 706.559 206.674 706.273 212.239 705.676C247.4 701.7 274.028 696.185 297.52 691.318C313.102 688.09 328.968 684.804 345.576 682.439C280.36 677.62 231.099 659.098 193.748 645.055C171.516 636.695 148.536 628.055 135.948 628.055C132.564 628.055 119.586 629.112 94.608 642.705C75.892 652.894 71.126 659.765 69.949 662.954C68.986 665.567 69.84 666.918 70.831 668.481C80.303 683.445 138.097 706.527 195.484 706.533Z" stroke="white" stroke-miterlimit="10"/>
</g>
<path d="M206.333 363.2C206.333 363.2 185.033 340.815 206.333 324.106C227.633 307.397 233.305 302.036 233.933 260.419C234.561 218.802 251.433 205.719 271.451 200.674C291.469 195.629 299.195 209.187 299.195 209.187C299.195 209.187 312.437 204.931 312.437 221.956C312.437 238.981 308.337 294.21 317.797 316.41C327.257 338.61 206.333 363.2 206.333 363.2Z" fill="url(#paint5_linear_1810_1921)"/>
<path d="M205.318 440.712L207.134 442.887H235.197L234.743 443.887C232.843 448.257 225.625 466.287 226.997 485.21C228.577 506.964 232.672 518.002 231.097 527.46H339.244L327.894 457.78L337.977 437.917L346.811 444.538L359.665 400.405C361.753 393.262 361.322 385.618 358.445 378.755L337.606 329.04C335.567 324.183 332.423 319.869 328.423 316.442C324.422 313.015 319.677 310.569 314.565 309.3L297.048 304.959L292.442 303.815L289.737 303.143L258.997 306.453L258.505 306.642L255.242 307.928L233.157 316.62C226.433 319.266 220.55 323.68 216.129 329.396C211.708 335.112 208.915 341.917 208.045 349.09L199.372 420.576C198.937 424.16 199.24 427.796 200.263 431.259C201.285 434.722 203.006 437.939 205.318 440.712Z" fill="url(#paint6_linear_1810_1921)"/>
<path d="M207.137 442.887H235.2C235.2 442.887 237.205 434.743 239.759 422.466H239.749C211.677 413.784 207.137 442.887 207.137 442.887Z" fill="#A7BEC9"/>
<path d="M259 306.451V274.292C259 274.292 243.237 268.459 245.286 257.898C247.335 247.337 255.06 248.913 259 257.898C260.257 255.669 260.649 253.055 260.1 250.556C260.1 250.556 288.712 251.829 295.805 233.856C295.805 233.856 298.643 243.551 305.736 245.679C305.736 245.679 305.499 281.857 302.504 290.055C299.509 298.253 289.735 296.991 289.735 296.991V303.139C289.735 303.139 292.1 311.966 283.745 315.277C275.39 318.588 262.469 314.332 259 306.451Z" fill="url(#paint7_linear_1810_1921)"/>
<path d="M232.959 442.889L229.715 441.073C229.715 441.073 244.971 403.24 248.755 366.986C249.701 357.886 250.355 349.724 250.921 342.451C245.359 348.747 242.046 356.711 241.5 365.094C240.554 381.173 239.608 387.482 233.621 395.361C227.634 403.24 236.903 413.398 228.012 420.936C223.245 424.965 221.126 434.707 220.181 442.889H232.959Z" fill="#C9E2F4"/>
<path d="M226.998 485.213C228.578 506.967 232.673 518.005 231.098 527.463H339.245L327.895 457.783C321.586 427.516 318.276 344.992 309.527 323.947C305.403 314.054 300.797 308.284 297.052 304.955C292.833 301.2 289.74 300.538 289.74 300.538C290.732 301.551 291.637 302.646 292.445 303.811C296.739 309.751 304.713 324.222 305.745 350.668C305.745 350.668 286.119 363.437 262.71 353.742C262.71 353.742 257.21 330.456 258.51 306.642C258.624 304.608 258.784 302.565 259.002 300.542C257.259 302.722 255.981 305.236 255.247 307.929C251.785 319.129 251.728 338.546 248.758 366.987C244.975 403.241 229.719 441.074 229.719 441.074L232.963 442.89H235.205L234.751 443.89C232.845 448.259 225.629 466.289 226.998 485.213Z" fill="url(#paint8_linear_1810_1921)"/>
<path d="M226.998 485.213C225.627 466.287 232.843 448.259 234.744 443.89L235.198 442.89H232.956L229.712 441.074C229.712 441.074 244.968 403.241 248.751 366.987C251.721 338.546 251.778 319.128 255.24 307.929C255.974 305.236 257.252 302.722 258.995 300.542C258.777 302.566 258.617 304.609 258.503 306.642C258.368 309.115 258.311 311.581 258.309 314.018C251.787 321.818 254.192 344.518 256.291 350.893C258.39 357.268 271.691 362.493 263.256 360.6C254.821 358.707 265.069 372.9 270.643 379.28C276.217 385.66 270.743 388.738 263.256 385.664C255.769 382.59 253.01 392.048 263.256 408.837C273.502 425.626 251.306 484.265 293.208 494.037C335.11 503.809 339.242 527.46 339.242 527.46H231.098C232.675 518.005 228.58 506.967 226.998 485.213Z" fill="url(#paint9_linear_1810_1921)"/>
<path d="M323.598 427.149C324.932 439.435 326.322 450.237 327.892 457.785L337.975 437.922L323.598 427.149Z" fill="url(#paint10_linear_1810_1921)"/>
<path d="M289.74 296.992V303.14C274.922 303.14 269.72 285.8 269.72 285.8C279.653 296.992 289.74 296.992 289.74 296.992Z" fill="url(#paint11_linear_1810_1921)"/>
<path d="M239.75 422.466H239.76C239.12 425.543 238.514 428.359 237.967 430.854C235.911 433.542 233.001 435.451 229.716 436.266L219.08 439.222L210.973 432.399C215.135 425.076 223.499 417.44 239.75 422.466Z" fill="url(#paint12_linear_1810_1921)"/>
<path d="M226.3 447.904C226.3 447.904 220.748 450.333 218.435 443.047C216.122 435.761 221.624 428.475 227.604 428.36C233.584 428.245 224.798 439.113 226.3 447.904Z" fill="#EAAD03"/>
<path d="M240.264 435.038C243.256 435.764 246.379 435.764 249.371 435.038C254.315 433.824 256.571 429.838 254.055 428.88C251.539 427.922 249.197 429.14 244.861 424.98C240.525 420.82 229.596 420.643 226.647 428.709C223.698 436.775 221.703 451.521 235.147 453.341C248.591 455.161 261.687 452.648 263.191 449.062C264.695 445.476 240.264 435.038 240.264 435.038Z" fill="#FED300"/>
<path d="M314.802 346.866C318.283 369.405 320.827 401.516 323.602 427.148C323.602 427.148 327.896 399.776 328.842 390.629C329.788 381.482 321.9 385.9 321.587 368.241C321.366 355.795 318.472 354.792 314.802 346.866Z" fill="#C9E2F4"/>
<path d="M281.636 461.178L275.8 462.621C272.105 458.87 268.217 455.314 264.151 451.968C256.53 445.558 248.375 439.81 239.777 434.786C239.59 434.679 239.435 434.525 239.328 434.338C239.221 434.151 239.166 433.94 239.168 433.724C239.171 433.509 239.231 433.299 239.342 433.114C239.453 432.93 239.612 432.779 239.801 432.677L241.291 431.867L241.304 431.885C241.32 431.885 241.348 431.907 241.38 431.911C244.602 433.156 248.071 433.627 251.508 433.287C252.78 433.161 253.353 432.498 254.347 432.081C273.902 441.833 281.636 461.178 281.636 461.178Z" fill="#1D164D"/>
<path d="M260.917 344.407C261.863 350.177 262.705 353.742 262.705 353.742C282.255 361.842 299.158 354.272 304.205 351.557C301.263 352.976 293.829 355.416 279.727 353.505C264.347 351.416 261.466 346.327 260.917 344.407Z" fill="#C9E2F4"/>
<path d="M232.545 467.344L236.592 474.091C238.178 476.737 240.311 479.013 242.849 480.768C245.386 482.522 248.269 483.715 251.304 484.265C263.594 486.492 285.44 489.097 305.749 484.657C311.274 483.454 316.112 480.146 319.239 475.435L324.612 467.324C324.843 466.977 324.99 466.581 325.041 466.167C325.092 465.753 325.045 465.333 324.905 464.94C324.766 464.547 324.536 464.193 324.235 463.904C323.934 463.616 323.57 463.401 323.172 463.278C312.26 459.912 276.172 450.911 234.098 463.378C233.704 463.494 233.341 463.698 233.038 463.976C232.734 464.254 232.499 464.597 232.349 464.98C232.199 465.363 232.139 465.775 232.173 466.185C232.207 466.595 232.334 466.991 232.545 467.344Z" fill="url(#paint13_linear_1810_1921)"/>
<path d="M232.571 464.575C232.904 465.132 233.434 465.544 234.056 465.729C241.798 468.059 249.724 469.723 257.749 470.704C262.261 471.281 267.226 471.725 272.57 471.924C279.356 472.169 286.152 471.985 292.915 471.375C295.828 471.108 298.798 470.755 301.825 470.316C309.028 469.261 316.146 467.693 323.125 465.625C323.769 465.434 324.319 465.008 324.667 464.433C324.328 463.878 323.796 463.467 323.173 463.279C318.121 461.746 312.982 460.514 307.784 459.59C303.348 458.777 298.241 458.048 292.584 457.566C272.898 455.844 253.064 457.817 234.103 463.383C233.46 463.572 232.912 463.998 232.571 464.575Z" fill="#4A4975"/>
<path d="M257.749 470.699C272.39 472.582 287.22 472.451 301.825 470.311C296.415 466.736 288.669 464.494 280.071 464.494C271.17 464.499 263.178 466.899 257.749 470.699Z" fill="#EAF5FF"/>
<path d="M279.787 468.966C284.837 468.966 288.93 467.561 288.93 465.827C288.93 464.093 284.837 462.688 279.787 462.688C274.737 462.688 270.644 464.093 270.644 465.827C270.644 467.561 274.737 468.966 279.787 468.966Z" fill="#FED300"/>
<path d="M272.57 471.924C279.357 472.169 286.152 471.985 292.915 471.375C298.577 468.431 303.624 464.43 307.783 459.59C319.464 446.055 322.207 429.058 328.913 420.849C338.613 408.979 366.513 414.275 376.441 398.669C377.931 396.319 379.561 394.061 381.321 391.906C376.828 376.328 367.096 362.074 359.775 352.906C359.175 356.084 358.555 359.506 357.836 363.197C351.849 394.097 331.353 391.884 309.92 397.881C288.487 403.878 300.14 421.205 298.57 442.881C298.126 448.272 296.036 453.396 292.583 457.56C286.682 464.99 277.848 469.635 272.57 471.924Z" fill="white"/>
<path d="M62.068 387.027H6.81601V459.866H62.068V387.027Z" fill="url(#paint14_linear_1810_1921)"/>
<path d="M24.209 387.027H6.81601V459.866H24.209V387.027Z" fill="url(#paint15_linear_1810_1921)"/>
<path d="M15.511 387.027H24.2111L19.863 379.366L15.515 371.705L11.167 379.366L6.81897 387.027H15.511Z" fill="#4099F1"/>
<path d="M53.3481 371.705H15.51L24.21 387.027H62.0461L53.3481 371.705Z" fill="url(#paint16_linear_1810_1921)"/>
<path d="M53.348 366.024H15.512V371.705H53.348V366.024Z" fill="#ACD4F3"/>
<path opacity="0.3" d="M62.068 397.58H31.973V441.23H62.068V397.58Z" fill="white"/>
<path d="M74.658 440.867C74.721 440.286 67.858 385.667 62.068 370.531C56.278 355.395 45.559 355.161 45.48 377.625C45.401 400.089 54.559 443.431 54.559 443.431L74.658 440.867Z" fill="url(#paint17_linear_1810_1921)"/>
<path d="M49.469 374.432C49.469 374.432 58.107 377.142 59.557 382.645C59.554 382.645 61.454 372.777 49.469 374.432Z" fill="#EAA492"/>
<path d="M51.176 392.521C51.176 392.521 59.814 395.231 61.264 400.734C61.266 400.732 63.166 390.866 51.176 392.521Z" fill="#EAA492"/>
<path d="M52.728 411.542C52.728 411.542 61.367 414.252 62.816 419.755C62.816 419.759 64.719 409.891 52.728 411.542Z" fill="#EAA492"/>
<path d="M80.093 440.671C80.025 440.046 87.412 381.251 93.645 364.962C99.878 348.673 111.415 348.417 111.5 372.598C111.585 396.779 101.728 443.432 101.728 443.432L80.093 440.671Z" fill="url(#paint18_linear_1810_1921)"/>
<path d="M107.207 369.161C107.207 369.161 97.9069 372.078 96.3479 378.001C96.3479 378.001 94.3009 367.38 107.207 369.161Z" fill="#EAA492"/>
<path d="M105.369 388.632C105.369 388.632 96.0689 391.549 94.5099 397.472C94.5099 397.472 92.4629 386.85 105.369 388.632Z" fill="#EAA492"/>
<path d="M103.698 409.111C103.698 409.111 94.398 412.028 92.839 417.951C92.839 417.951 90.792 407.33 103.698 409.111Z" fill="#EAA492"/>
<path d="M88.9101 401.192C88.2358 399.953 87.3012 398.874 86.1703 398.03C85.0394 397.187 83.7391 396.598 82.359 396.305C77.398 395.044 71.7651 397.541 70.3451 406.746C68.9251 415.951 71.385 445.015 71.385 445.015H88.9101V401.192Z" fill="url(#paint19_linear_1810_1921)"/>
<path d="M78.899 391.812C78.899 391.812 79.056 376.284 82.524 376.679C85.992 377.074 82.524 393.779 82.524 393.779C82.524 393.779 87.884 384.235 89.696 385.224C91.508 386.213 86.196 397.247 83.375 398.903C80.554 400.559 77.7161 399.849 76.1391 393.937C74.5621 388.025 73.932 384.242 75.824 383.848C77.716 383.454 78.899 391.812 78.899 391.812Z" fill="url(#paint20_linear_1810_1921)"/>
<path d="M58.929 414.19C58.929 414.19 60.762 409.418 64.529 408.89C67.2453 408.589 69.9866 408.589 72.7029 408.89C71.6264 411.413 69.9283 413.623 67.767 415.312C64.267 417.966 60.3759 417.428 59.3219 416.741C58.2679 416.054 58.929 414.19 58.929 414.19Z" fill="url(#paint21_linear_1810_1921)"/>
<path d="M72.705 443.865C76.1393 439.384 77.7679 433.778 77.269 428.155C76.525 418.495 70.581 417.38 67.662 418.07C64.743 418.76 60.8151 420.405 57.5251 419.291C54.2351 418.177 50.4121 415.735 46.3791 418.282C42.3461 420.829 41.3541 426.846 41.9211 432.082C42.4881 437.318 46.309 443.865 48.644 445.59L72.705 443.865Z" fill="url(#paint22_linear_1810_1921)"/>
<path opacity="0.3" d="M46.379 418.282C47.2042 417.757 48.1274 417.405 49.0928 417.247C50.0581 417.089 51.0454 417.128 51.995 417.363C50.011 418.989 52.786 423.626 51.968 424.793C50.978 426.208 48.783 422.953 49.368 426.137C49.953 429.321 50.553 430.667 48.759 430.737C46.965 430.807 47.864 433.709 50.178 439.088C51.905 443.103 56.6261 444.436 58.9081 444.854L48.6431 445.59C46.3081 443.865 42.486 437.319 41.92 432.082C41.354 426.845 42.345 420.83 46.379 418.282Z" fill="url(#paint23_linear_1810_1921)"/>
<path d="M46.353 432.133H46.41C46.5499 432.118 46.678 432.048 46.7663 431.938C46.8546 431.828 46.8958 431.688 46.8809 431.548C46.5107 429.05 46.8004 426.499 47.721 424.148C47.7762 424.022 47.7801 423.879 47.732 423.75C47.6839 423.621 47.5874 423.515 47.4631 423.456C47.3387 423.397 47.1961 423.388 47.0655 423.432C46.9348 423.476 46.8264 423.569 46.763 423.691C45.7581 426.22 45.435 428.969 45.826 431.662C45.8407 431.792 45.9025 431.911 45.9997 431.998C46.0969 432.085 46.2226 432.133 46.353 432.133Z" fill="white"/>
<path d="M64.856 444.43C65.589 443.664 65.917 442.249 67.256 442.558C69.095 442.983 67.4681 441.072 68.4561 439.444C69.4441 437.816 70.649 439.869 72.418 438.666C74.187 437.463 69.5181 432.509 71.0031 431.605C72.4881 430.701 72.631 434.705 74.47 433.216C75.759 432.176 75.781 425.784 75.678 422.05C76.6246 423.953 77.1654 426.033 77.266 428.156C77.7645 433.78 76.1356 439.385 72.701 443.866L64.856 444.43Z" fill="#C7283A"/>
<path d="M48.76 422.585C48.8602 422.585 48.9585 422.557 49.0431 422.503C49.377 422.273 49.7736 422.151 50.179 422.154C50.2507 422.157 50.3221 422.146 50.3891 422.121C50.4562 422.095 50.5175 422.057 50.5693 422.007C50.6211 421.958 50.6623 421.898 50.6904 421.832C50.7185 421.766 50.733 421.695 50.733 421.624C50.733 421.552 50.7185 421.481 50.6904 421.415C50.6623 421.349 50.6211 421.29 50.5693 421.24C50.5175 421.191 50.4562 421.152 50.3891 421.127C50.3221 421.101 50.2507 421.09 50.179 421.093C49.5739 421.091 48.9817 421.269 48.479 421.606C48.3816 421.668 48.3069 421.759 48.2661 421.867C48.2252 421.974 48.2205 422.092 48.2525 422.203C48.2846 422.314 48.3516 422.411 48.4437 422.48C48.5358 422.549 48.6479 422.586 48.763 422.586L48.76 422.585Z" fill="white"/>
<path d="M58.94 419.874C60.52 419.799 62.0878 419.559 63.618 419.158C66.018 418.508 66.512 419.874 62.478 420.935C58.444 421.996 56.1179 421.572 54.0479 420.378C51.9779 419.184 52.536 418.653 53.836 418.578C55.136 418.503 56.672 420.097 58.94 419.874Z" fill="#C7283A"/>
<path d="M58.4991 420.542C58.4991 420.542 58.9231 421.037 59.2591 420.542C59.4605 418.716 59.4127 416.871 59.1171 415.057C58.9352 413.897 58.5351 412.782 57.938 411.77C57.8734 411.666 57.7881 411.577 57.6872 411.508C57.5863 411.439 57.4721 411.392 57.352 411.369C57.2318 411.346 57.1083 411.349 56.9892 411.376C56.8701 411.404 56.758 411.456 56.6601 411.529L56.632 411.55C56.5384 411.62 56.4596 411.707 56.3999 411.807C56.3403 411.907 56.3012 412.018 56.2848 412.134C56.2685 412.249 56.2752 412.367 56.3046 412.48C56.334 412.592 56.3855 412.698 56.4561 412.791C57.1025 413.674 57.5984 414.658 57.924 415.703C58.4202 417.265 58.6154 418.907 58.4991 420.542Z" fill="url(#paint24_linear_1810_1921)"/>
<path d="M42.275 429.738C42.3587 428.608 42.6262 427.498 43.067 426.454C43.637 425.58 43.51 425.172 43.102 424.276C42.9055 423.865 42.6711 423.473 42.4019 423.105C42.3364 423.014 42.2519 422.938 42.1541 422.883C42.0563 422.828 41.9477 422.794 41.8358 422.785C41.7238 422.776 41.6112 422.792 41.5059 422.831C41.4006 422.87 41.3051 422.931 41.2259 423.011L40.894 423.343C40.6404 423.599 40.4492 423.909 40.3354 424.251C40.2216 424.593 40.1883 424.956 40.238 425.313C40.351 425.913 40.3327 426.531 40.1844 427.124C40.0361 427.716 39.7614 428.27 39.379 428.746C37.779 430.529 35.509 432.04 35.43 436.584C35.351 441.128 37.748 446.684 41.254 451.12C44.76 455.556 53.11 460.832 59.415 460.92C65.72 461.008 66.982 460.195 67.998 459.163C69.014 458.131 69.6979 457.513 70.4119 457.501C70.4119 457.501 71.6779 456.587 71.3299 455.711C71.1901 455.346 70.9749 455.015 70.6983 454.74C70.4217 454.464 70.09 454.25 69.7249 454.111C69.0503 453.902 68.4144 453.584 67.842 453.17C67.003 452.576 62.0039 451.677 58.5799 450.629C55.1559 449.581 51.8679 448.249 50.2289 444.281C48.5899 440.313 46.579 434.496 45.185 432.49C44.4422 431.359 43.4458 430.417 42.275 429.738Z" fill="#FED300"/>
<path opacity="0.3" d="M46.085 437.757C46.653 443.549 47.524 445.822 49.285 447.65C51.046 449.478 50.228 447.429 51.178 447.597C52.128 447.765 50.958 449.844 52.241 451.075C53.524 452.306 52.951 449.86 54.131 450.034C55.311 450.208 59.4501 454.249 61.1171 453.334C61.9906 452.797 62.9166 452.351 63.881 452.003C62.165 451.591 60.1971 451.129 58.5811 450.633C55.1571 449.585 51.868 448.253 50.229 444.285C48.59 440.317 46.5791 434.5 45.1851 432.494C44.443 431.364 43.4476 430.422 42.278 429.743C42.278 429.743 45.512 431.964 46.085 437.757Z" fill="white"/>
<path d="M67.995 459.161C69.012 458.128 69.6949 457.511 70.4089 457.499C70.8414 457.188 71.1723 456.756 71.36 456.258C71.056 456.505 70.6864 456.657 70.297 456.695C69.9075 456.734 69.5153 456.657 69.1689 456.475C68.6689 456.126 68.6629 457.313 67.0689 457.924C65.4749 458.535 63.0619 456.409 60.0219 457.55C56.9819 458.691 57.036 457.755 57.905 456.275C58.774 454.795 51.261 454.215 47.827 453.208C44.393 452.201 44.0859 446.763 39.5009 441.99C34.9159 437.217 37.1459 432.369 39.0089 431.158C39.8647 430.676 40.5588 429.951 41.0036 429.075C41.4485 428.199 41.6243 427.211 41.5089 426.235C41.4761 426.001 41.492 425.763 41.5554 425.535C41.6188 425.307 41.7284 425.095 41.8775 424.911C42.0266 424.728 42.212 424.577 42.422 424.469C42.6319 424.36 42.8621 424.296 43.098 424.28C42.9015 423.869 42.667 423.477 42.3979 423.109C42.3324 423.018 42.2479 422.942 42.1501 422.887C42.0523 422.832 41.9437 422.798 41.8318 422.789C41.7198 422.78 41.6072 422.796 41.5019 422.835C41.3966 422.874 41.3011 422.935 41.2219 423.015L40.89 423.347C40.6364 423.603 40.4452 423.914 40.3314 424.255C40.2176 424.597 40.1843 424.96 40.234 425.317C40.347 425.917 40.3287 426.535 40.1804 427.128C40.0321 427.72 39.7574 428.274 39.375 428.75C37.775 430.533 35.505 432.044 35.426 436.588C35.347 441.132 37.744 446.688 41.249 451.124C44.754 455.56 53.1049 460.836 59.4099 460.924C65.7149 461.012 66.978 460.194 67.995 459.161Z" fill="#EAAD03"/>
<path d="M43.374 425.856C43.4415 425.588 43.4522 425.309 43.4053 425.037C43.3585 424.765 43.2552 424.506 43.102 424.276C42.9055 423.865 42.6712 423.473 42.402 423.105C42.3116 422.977 42.1843 422.88 42.0373 422.827C41.8903 422.773 41.7305 422.765 41.579 422.805C40.964 423.58 41.8201 424.776 42.5581 425.425C42.7688 425.663 43.0587 425.816 43.374 425.856Z" fill="#1D164D"/>
<path d="M71.323 455.708C71.2224 455.452 71.0853 455.211 70.916 454.994C70.5991 455.337 70.3985 455.771 70.343 456.234L70.405 457.499C70.405 457.499 71.675 456.585 71.323 455.708Z" fill="#1D164D"/>
<path d="M32.955 427.12C33.0383 425.99 33.3058 424.88 33.747 423.836C34.317 422.963 34.19 422.555 33.782 421.659C33.585 421.248 33.3506 420.855 33.0819 420.487C33.0163 420.396 32.9317 420.32 32.8339 420.265C32.7361 420.21 32.6275 420.177 32.5157 420.168C32.4038 420.159 32.2914 420.175 32.1861 420.213C32.0808 420.252 31.9852 420.314 31.9059 420.393L31.574 420.725C31.3204 420.981 31.1293 421.292 31.0157 421.634C30.902 421.976 30.869 422.339 30.919 422.696C31.032 423.296 31.0137 423.914 30.8654 424.506C30.7171 425.099 30.4424 425.652 30.06 426.128C28.46 427.911 26.19 429.428 26.111 433.967C26.032 438.506 28.429 444.067 31.934 448.502C35.439 452.937 43.79 458.214 50.095 458.302C56.4 458.39 57.661 457.577 58.679 456.545C59.697 455.513 60.3789 454.895 61.0929 454.884C61.0929 454.884 62.359 453.969 62.011 453.094C61.8711 452.729 61.6558 452.398 61.3792 452.123C61.1026 451.847 60.771 451.633 60.4059 451.494C59.7311 451.285 59.0949 450.967 58.522 450.554C57.684 449.96 52.685 449.061 49.261 448.013C45.837 446.965 42.549 445.633 40.909 441.665C39.269 437.697 37.26 431.879 35.866 429.873C35.1231 428.741 34.1263 427.799 32.955 427.12Z" fill="#FED300"/>
<path opacity="0.3" d="M36.765 435.139C37.333 440.931 38.2031 443.204 39.9651 445.032C41.7271 446.86 40.909 444.812 41.859 444.979C42.809 445.146 41.6391 447.226 42.9221 448.458C44.2051 449.69 43.631 447.243 44.812 447.416C45.993 447.589 50.1311 451.632 51.7981 450.716C52.6715 450.179 53.5976 449.733 54.562 449.384C52.846 448.973 50.8781 448.51 49.2621 448.015C45.8391 446.967 42.551 445.635 40.91 441.667C39.269 437.699 37.261 431.881 35.867 429.875C35.125 428.745 34.1297 427.803 32.9601 427.124C32.9601 427.124 36.196 429.347 36.765 435.139Z" fill="white"/>
<path d="M58.675 456.543C59.692 455.511 60.3749 454.893 61.0889 454.882C61.5209 454.571 61.8517 454.139 62.04 453.641C61.736 453.888 61.3662 454.04 60.9765 454.078C60.5868 454.117 60.1945 454.04 59.848 453.858C59.353 453.508 59.343 454.696 57.754 455.307C56.165 455.918 53.746 453.792 50.707 454.933C47.668 456.074 47.7209 455.138 48.5899 453.658C49.4589 452.178 41.9449 451.598 38.5119 450.591C35.0789 449.584 34.771 444.145 30.186 439.373C25.601 434.601 27.8309 429.752 29.6939 428.54C30.5496 428.058 31.2436 427.333 31.6884 426.457C32.1333 425.581 32.3091 424.593 32.1939 423.618C32.1609 423.384 32.1767 423.145 32.2401 422.917C32.3034 422.69 32.4131 422.477 32.5622 422.294C32.7113 422.11 32.8967 421.959 33.1068 421.851C33.3168 421.742 33.547 421.678 33.783 421.662C33.5859 421.251 33.3515 420.858 33.083 420.49C33.0173 420.399 32.9327 420.323 32.8349 420.268C32.7371 420.213 32.6285 420.18 32.5167 420.171C32.4048 420.162 32.2924 420.177 32.1871 420.216C32.0818 420.255 31.9862 420.316 31.9069 420.396L31.575 420.728C31.3214 420.984 31.1302 421.295 31.0165 421.637C30.9029 421.979 30.8699 422.342 30.92 422.699C31.033 423.299 31.0147 423.917 30.8664 424.509C30.7181 425.101 30.4434 425.655 30.061 426.131C28.461 427.914 26.191 429.431 26.112 433.97C26.033 438.509 28.43 444.07 31.935 448.505C35.44 452.94 43.791 458.217 50.096 458.305C56.401 458.393 57.657 457.576 58.675 456.543Z" fill="#EAAD03"/>
<path d="M34.053 423.237C34.1206 422.969 34.1313 422.69 34.0845 422.418C34.0376 422.146 33.9342 421.887 33.781 421.657C33.584 421.246 33.3497 420.853 33.0811 420.485C32.9905 420.357 32.8633 420.26 32.7163 420.207C32.5693 420.153 32.4095 420.146 32.2581 420.185C31.6431 420.96 32.4981 422.156 33.2371 422.805C33.448 423.043 33.7378 423.196 34.053 423.237Z" fill="#1D164D"/>
<path d="M62.007 453.093C61.9063 452.837 61.7692 452.596 61.6001 452.379C61.283 452.722 61.0824 453.156 61.0271 453.619L61.089 454.884C61.089 454.884 62.355 453.968 62.007 453.093Z" fill="#1D164D"/>
<path d="M23.875 423.233C23.9587 422.102 24.2266 420.993 24.668 419.949C25.238 419.076 25.111 418.668 24.703 417.772C24.5059 417.361 24.2716 416.969 24.0029 416.6C23.9373 416.509 23.8527 416.433 23.7549 416.378C23.6571 416.323 23.5485 416.29 23.4366 416.281C23.3248 416.272 23.2123 416.288 23.1071 416.326C23.0018 416.365 22.9062 416.427 22.8269 416.506L22.495 416.838C22.2413 417.094 22.0501 417.405 21.9365 417.747C21.8229 418.089 21.7899 418.452 21.84 418.809C21.953 419.409 21.9348 420.027 21.7865 420.619C21.6382 421.212 21.3634 421.765 20.981 422.241C19.381 424.024 17.111 425.541 17.032 430.08C16.953 434.619 19.35 440.18 22.855 444.615C26.36 449.05 34.711 454.327 41.016 454.415C47.321 454.503 48.582 453.69 49.599 452.658C50.616 451.626 51.2989 451.008 52.0129 450.997C52.0129 450.997 53.2789 450.082 52.9309 449.207C52.791 448.842 52.5758 448.511 52.2992 448.236C52.0226 447.96 51.6909 447.746 51.3259 447.607C50.6511 447.398 50.0148 447.08 49.4419 446.667C48.6039 446.073 43.6049 445.174 40.1809 444.126C36.7569 443.078 33.469 441.746 31.829 437.778C30.189 433.81 28.18 427.992 26.786 425.986C26.0431 424.854 25.0463 423.912 23.875 423.233Z" fill="#FED300"/>
<path opacity="0.3" d="M27.6861 431.252C28.2541 437.044 29.124 439.317 30.886 441.144C32.648 442.971 31.8301 440.924 32.7801 441.091C33.7301 441.258 32.56 443.338 33.843 444.57C35.126 445.802 34.5521 443.355 35.7331 443.528C36.9141 443.701 41.052 447.744 42.719 446.828C43.5924 446.291 44.5186 445.844 45.4831 445.496C43.7671 445.085 41.799 444.622 40.183 444.127C36.76 443.079 33.471 441.747 31.831 437.779C30.191 433.811 28.182 427.993 26.788 425.987C26.0454 424.856 25.0494 423.914 23.8791 423.236C23.8791 423.236 27.1171 425.462 27.6861 431.252Z" fill="white"/>
<path d="M49.596 452.66C50.6129 451.628 51.2959 451.01 52.0099 450.999C52.4421 450.688 52.7727 450.256 52.96 449.757C52.656 450.004 52.2864 450.156 51.897 450.194C51.5075 450.233 51.1153 450.156 50.7689 449.974C50.2739 449.624 50.2629 450.812 48.6749 451.423C47.0869 452.034 44.6679 449.907 41.6279 451.049C38.5879 452.191 38.642 451.254 39.511 449.774C40.38 448.294 32.865 447.714 29.433 446.707C26.001 445.7 25.692 440.261 21.106 435.489C16.52 430.717 18.752 425.868 20.615 424.656C21.4707 424.174 22.1645 423.449 22.6094 422.573C23.0542 421.697 23.2302 420.71 23.115 419.734C23.082 419.5 23.0977 419.261 23.161 419.033C23.2244 418.806 23.334 418.593 23.4832 418.41C23.6323 418.226 23.8177 418.075 24.0277 417.967C24.2378 417.858 24.468 417.794 24.704 417.778C24.507 417.367 24.2726 416.974 24.0039 416.606C23.9383 416.515 23.8538 416.439 23.756 416.384C23.6582 416.329 23.5496 416.296 23.4377 416.287C23.3259 416.278 23.2133 416.294 23.108 416.332C23.0027 416.371 22.9073 416.433 22.828 416.512L22.496 416.844C22.2423 417.1 22.0512 417.411 21.9376 417.753C21.824 418.095 21.7909 418.458 21.8409 418.815C21.9539 419.415 21.9356 420.033 21.7874 420.625C21.6391 421.218 21.3643 421.771 20.9819 422.247C19.3819 424.03 17.112 425.547 17.033 430.086C16.954 434.625 19.351 440.186 22.856 444.621C26.361 449.056 34.712 454.333 41.017 454.421C47.322 454.509 48.578 453.689 49.596 452.66Z" fill="#EAAD03"/>
<path d="M24.974 419.352C25.0415 419.084 25.0521 418.805 25.0051 418.533C24.9581 418.26 24.8545 418.001 24.701 417.771C24.5039 417.36 24.2697 416.968 24.0011 416.599C23.9105 416.471 23.7833 416.374 23.6363 416.321C23.4893 416.267 23.3295 416.26 23.1781 416.299C22.5631 417.074 23.4181 418.27 24.1571 418.919C24.3681 419.157 24.6583 419.311 24.974 419.352Z" fill="#1D164D"/>
<path d="M52.928 449.205C52.8276 448.949 52.6909 448.708 52.522 448.491C52.205 448.833 52.0044 449.268 51.949 449.731L52.011 450.996C52.011 450.996 53.276 450.081 52.928 449.205Z" fill="#1D164D"/>
<path d="M107.854 438.053H0V540.072H107.854V438.053Z" fill="url(#paint25_linear_1810_1921)"/>
<path d="M28.848 438.053H0V540.072H28.848V438.053Z" fill="url(#paint26_linear_1810_1921)"/>
<path d="M64.426 540.075L67.426 533.797C68.7847 530.957 70.9192 528.558 73.583 526.88C76.2469 525.201 79.3313 524.31 82.48 524.31H342.909C346.058 524.31 349.142 525.201 351.806 526.879C354.47 528.558 356.605 530.956 357.963 533.797L360.963 540.075H64.426Z" fill="url(#paint27_linear_1810_1921)"/>
<path d="M336.878 524.308H341.607C341.604 521.403 340.449 518.618 338.395 516.565C336.341 514.511 333.556 513.355 330.651 513.352H301.825V518.081H330.651C332.302 518.083 333.885 518.739 335.052 519.907C336.22 521.074 336.876 522.657 336.878 524.308Z" fill="#1D164D"/>
<path d="M232.789 524.308H237.518C237.52 522.657 238.176 521.075 239.344 519.908C240.511 518.74 242.093 518.084 243.744 518.082H272.569V513.352H243.743C240.839 513.356 238.054 514.511 236.001 516.565C233.947 518.619 232.792 521.404 232.789 524.308Z" fill="#1D164D"/>
<path d="M289.562 510.593H284.833V524.308H289.562V510.593Z" fill="#1D164D"/>
<path d="M190.87 524.308H195.599C195.596 521.403 194.44 518.618 192.387 516.565C190.333 514.511 187.548 513.355 184.643 513.352H155.817V518.081H184.643C186.294 518.083 187.877 518.739 189.044 519.907C190.212 521.074 190.868 522.657 190.87 524.308Z" fill="#1D164D"/>
<path d="M86.7809 524.308H91.5099C91.5118 522.657 92.1684 521.075 93.3356 519.908C94.5028 518.74 96.0854 518.084 97.736 518.082H126.562V513.352H97.736C94.8315 513.355 92.0468 514.511 89.9931 516.565C87.9394 518.619 86.7841 521.403 86.7809 524.308Z" fill="#1D164D"/>
<path d="M143.555 510.593H138.826V524.308H143.555V510.593Z" fill="#1D164D"/>
<path d="M413.803 386.098C415.653 386.098 417.153 384.598 417.153 382.748C417.153 380.898 415.653 379.398 413.803 379.398C411.953 379.398 410.453 380.898 410.453 382.748C410.453 384.598 411.953 386.098 413.803 386.098Z" fill="url(#paint28_linear_1810_1921)"/>
<path d="M442.493 382.748H385.112C383.719 382.748 382.59 383.877 382.59 385.27C382.59 386.663 383.719 387.792 385.112 387.792H442.493C443.886 387.792 445.015 386.663 445.015 385.27C445.015 383.877 443.886 382.748 442.493 382.748Z" fill="url(#paint29_linear_1810_1921)"/>
<path opacity="0.5" d="M385.114 387.792L393.154 489.942H434.454L442.493 387.792H385.114Z" fill="url(#paint30_linear_1810_1921)"/>
<path d="M393.566 489.942H434.041C434.877 489.942 435.704 490.107 436.477 490.426C437.249 490.746 437.95 491.215 438.541 491.806C439.132 492.397 439.601 493.099 439.921 493.871C440.241 494.643 440.405 495.471 440.405 496.307V536.86C440.405 537.282 440.322 537.699 440.161 538.089C440 538.479 439.763 538.833 439.465 539.131C439.167 539.429 438.813 539.666 438.423 539.827C438.033 539.989 437.616 540.072 437.194 540.072H430.473L428.106 536.892C427.666 536.302 427.094 535.823 426.436 535.493C425.778 535.163 425.052 534.991 424.316 534.992H403.291C402.555 534.991 401.829 535.163 401.171 535.493C400.513 535.823 399.941 536.302 399.501 536.892L397.134 540.072H390.413C389.561 540.072 388.744 539.733 388.142 539.131C387.539 538.529 387.201 537.712 387.201 536.86V496.307C387.201 494.619 387.872 493 389.065 491.806C390.259 490.612 391.878 489.942 393.566 489.942Z" fill="url(#paint31_linear_1810_1921)"/>
<path d="M413.803 519.499C420.071 519.499 425.153 514.417 425.153 508.149C425.153 501.881 420.071 496.799 413.803 496.799C407.535 496.799 402.453 501.881 402.453 508.149C402.453 514.417 407.535 519.499 413.803 519.499Z" fill="url(#paint32_linear_1810_1921)"/>
<path d="M417.858 514.211C418.412 514.766 419.31 514.766 419.865 514.211C420.419 513.657 420.419 512.759 419.865 512.205L409.749 502.089C409.195 501.535 408.296 501.535 407.742 502.089C407.188 502.643 407.188 503.541 407.742 504.096L417.858 514.211Z" fill="url(#paint33_linear_1810_1921)"/>
<path d="M441.45 401.034H446.432C447.736 401.034 449.028 401.291 450.233 401.79C451.438 402.289 452.533 403.02 453.455 403.942C454.377 404.864 455.109 405.959 455.608 407.164C456.107 408.369 456.364 409.661 456.364 410.965V448.265C456.364 450.157 455.991 452.031 455.267 453.78C454.543 455.528 453.481 457.117 452.143 458.455L435.35 475.253L435.832 461.726L442.032 455.526C443.77 453.788 445.148 451.725 446.089 449.455C447.029 447.184 447.513 444.751 447.513 442.293V415.763C447.513 415.423 447.446 415.086 447.316 414.771C447.186 414.457 446.995 414.171 446.754 413.93C446.514 413.689 446.228 413.499 445.914 413.368C445.599 413.238 445.262 413.171 444.922 413.171H439.651L441.45 401.034Z" fill="url(#paint34_linear_1810_1921)"/>
<path d="M385.802 396.541L385.114 387.792H442.494L441.805 396.541H385.802Z" fill="url(#paint35_linear_1810_1921)"/>
<path d="M407.71 479.241V481.067L412.025 483.736V475.353H413.917V483.736L418.232 481.067V479.241H420.124V481.766L412.971 486.19L405.818 481.766V479.241H407.71Z" fill="#272256"/>
<path d="M434.844 484.977L434.453 489.943H393.153L392.762 484.977H434.844Z" fill="#C9E2F4"/>
<path d="M413.358 459.421C411.486 465.886 414.701 467.977 418.818 468.068C422.935 468.159 427.029 466.301 428.487 463.837C428.889 463.131 429.042 462.311 428.923 461.508C428.803 460.704 428.418 459.964 427.828 459.406C426.864 459.882 425.25 458.637 424.519 456.887C423.788 455.137 421.736 455.009 421.797 454.374C421.858 453.739 423.026 453.574 423.026 453.574C422.071 452.556 420.902 451.763 419.602 451.254C417.946 450.809 415.229 452.961 413.358 459.421Z" fill="url(#paint36_linear_1810_1921)"/>
<path d="M419.652 467.279C420.863 467.504 421.708 467.497 421.078 466.079C420.448 464.661 420.443 463.602 420.954 463.217C421.465 462.832 421.185 463.706 422.714 463.757C423.835 463.794 422.541 465.803 426.231 464.535C429.082 463.556 427.831 459.41 427.831 459.41C428.421 459.968 428.806 460.708 428.926 461.511C429.045 462.314 428.891 463.134 428.489 463.839C427.031 466.303 422.937 468.16 418.82 468.07C418.668 468.07 418.52 468.061 418.367 468.052C418.792 467.63 419.04 467.166 419.652 467.279Z" fill="#C7283A"/>
<path opacity="0.3" d="M413.358 459.421C412.12 463.7 413.109 466.062 415.113 467.198C414.841 466.723 414.675 466.195 414.627 465.65C414.579 465.105 414.65 464.556 414.835 464.041C415.874 460.868 419.368 462.315 418.385 459.285C417.402 456.255 417.554 456.073 418.885 455.795C420.216 455.517 418.609 454.87 418.648 453.464C418.646 453.44 418.646 453.416 418.648 453.392C418.681 452.908 418.915 452.992 419.232 453.243C419.732 453.643 420.432 454.471 420.872 454.196C421.608 453.74 421.422 455.365 423.224 455.432C422.482 454.954 421.755 454.757 421.792 454.375C421.853 453.74 423.021 453.575 423.021 453.575C422.066 452.557 420.897 451.764 419.597 451.255C417.946 450.809 415.229 452.961 413.358 459.421Z" fill="url(#paint37_linear_1810_1921)"/>
<path d="M425.523 455.343C425.908 455.019 426.181 454.583 426.306 454.096C426.584 453.196 426.76 453.149 427.014 453.385C427.268 453.621 427.272 454.945 425.982 456.021C425.982 456.021 427.931 457.435 427.828 459.405C426.864 459.881 425.249 458.634 424.519 456.885C423.789 455.136 421.736 455.007 421.797 454.372C421.858 453.737 423.027 453.572 423.027 453.572C423.027 453.572 424.196 453.569 425.523 455.343Z" fill="url(#paint38_linear_1810_1921)"/>
<path d="M425.513 464.157C425.465 464.212 425.441 464.283 425.445 464.356C425.448 464.429 425.481 464.497 425.534 464.546C425.588 464.596 425.658 464.622 425.731 464.621C425.804 464.619 425.873 464.589 425.924 464.537C426.088 464.253 426.232 463.958 426.356 463.655C426.064 463.803 425.782 463.971 425.513 464.157Z" fill="#FBDA91"/>
<path d="M423.167 462.306C423.142 462.333 423.123 462.364 423.11 462.399C423.097 462.433 423.092 462.47 423.093 462.506C423.094 462.543 423.103 462.579 423.118 462.612C423.134 462.646 423.156 462.675 423.182 462.7C423.209 462.725 423.241 462.745 423.275 462.757C423.31 462.77 423.346 462.776 423.383 462.774C423.42 462.773 423.456 462.764 423.489 462.749C423.522 462.734 423.552 462.712 423.577 462.685C423.741 462.401 423.885 462.107 424.009 461.804C423.717 461.952 423.436 462.12 423.167 462.306Z" fill="#FBDA91"/>
<path d="M419.519 462.973C419.469 463.027 419.442 463.099 419.445 463.173C419.448 463.247 419.48 463.317 419.534 463.367C419.589 463.418 419.661 463.444 419.735 463.441C419.809 463.438 419.879 463.406 419.929 463.352C420.093 463.068 420.237 462.774 420.361 462.471C420.069 462.619 419.788 462.786 419.519 462.973Z" fill="#FBDA91"/>
<path d="M415.911 456.143C415.877 456.165 415.848 456.193 415.827 456.227C415.805 456.261 415.79 456.299 415.784 456.339C415.778 456.379 415.781 456.419 415.792 456.458C415.803 456.497 415.822 456.533 415.848 456.563C415.874 456.594 415.906 456.619 415.942 456.636C415.979 456.654 416.018 456.663 416.059 456.664C416.099 456.665 416.139 456.657 416.176 456.641C416.213 456.625 416.246 456.602 416.273 456.572C416.504 456.283 416.718 455.98 416.913 455.665C416.569 455.803 416.235 455.963 415.911 456.143Z" fill="#F9E2B2"/>
<path d="M417.499 459.839C417.474 459.866 417.455 459.898 417.442 459.932C417.429 459.966 417.424 460.003 417.425 460.04C417.427 460.076 417.435 460.112 417.451 460.146C417.466 460.179 417.488 460.209 417.515 460.234C417.542 460.259 417.574 460.278 417.608 460.291C417.642 460.303 417.679 460.309 417.716 460.308C417.752 460.306 417.789 460.298 417.822 460.282C417.855 460.267 417.885 460.245 417.91 460.218C418.074 459.934 418.218 459.64 418.342 459.337C418.05 459.485 417.768 459.652 417.499 459.839Z" fill="#F9E2B2"/>
<path d="M419.016 456.814C418.991 456.841 418.972 456.872 418.959 456.907C418.946 456.941 418.941 456.978 418.942 457.015C418.944 457.051 418.952 457.087 418.968 457.121C418.983 457.154 419.005 457.184 419.032 457.209C419.059 457.234 419.091 457.253 419.125 457.266C419.159 457.278 419.196 457.284 419.233 457.283C419.269 457.281 419.306 457.273 419.339 457.257C419.372 457.242 419.402 457.22 419.427 457.193C419.591 456.909 419.735 456.615 419.859 456.312C419.567 456.46 419.285 456.627 419.016 456.814Z" fill="#FBDA91"/>
<path d="M418.653 453.392C418.784 453.369 419.031 453.303 419.237 453.243C418.92 452.989 418.686 452.908 418.653 453.392Z" fill="#FBDA91"/>
<path d="M418.283 453.197C418.283 453.315 418.423 453.407 418.583 453.397C418.604 453.395 418.626 453.393 418.647 453.389C418.68 452.905 418.914 452.989 419.231 453.24C419.403 453.193 419.544 453.148 419.565 453.14C419.235 453.062 418.901 453.003 418.565 452.963C418.408 452.975 418.283 453.077 418.283 453.197Z" fill="#F9E2B2"/>
<path d="M418.865 465.785C418.817 465.84 418.793 465.911 418.797 465.984C418.801 466.057 418.833 466.125 418.886 466.174C418.94 466.224 419.01 466.25 419.083 466.249C419.156 466.247 419.225 466.217 419.276 466.165C419.44 465.881 419.584 465.586 419.708 465.283C419.416 465.431 419.134 465.599 418.865 465.785Z" fill="#FBDA91"/>
<path d="M423.23 455.431C423.24 455.431 423.671 455.254 424.73 456.246C425.789 457.238 426.13 458.256 426.662 458.325C426.962 458.364 427.102 457.793 427.171 457.28C427.618 457.897 427.851 458.645 427.833 459.407C426.869 459.883 425.254 458.636 424.524 456.887C424.255 456.278 423.803 455.769 423.23 455.431Z" fill="#6BBC61"/>
<path d="M402.364 425.595C407.656 426.623 409.094 423.908 408.87 420.617C408.646 417.326 406.87 414.192 404.799 413.205C404.207 412.935 403.541 412.872 402.909 413.025C402.277 413.178 401.714 413.539 401.311 414.05C401.76 414.785 400.883 416.163 399.539 416.871C398.195 417.579 398.239 419.226 397.73 419.223C397.221 419.22 397.003 418.3 397.003 418.3C396.259 419.135 395.711 420.126 395.398 421.2C395.163 422.553 397.071 424.566 402.364 425.595Z" fill="url(#paint39_linear_1810_1921)"/>
<path d="M408.181 420.008C408.273 419.026 408.207 418.352 407.118 418.957C406.029 419.562 405.187 419.642 404.843 419.257C404.499 418.872 405.217 419.039 405.143 417.815C405.093 416.915 406.788 417.806 405.512 414.953C404.526 412.753 401.312 414.047 401.312 414.047C401.714 413.535 402.277 413.174 402.909 413.021C403.542 412.868 404.207 412.932 404.799 413.203C406.87 414.19 408.646 417.322 408.87 420.615C408.878 420.736 408.884 420.857 408.887 420.977C408.522 420.669 408.134 420.504 408.181 420.008Z" fill="#C7283A"/>
<path opacity="0.3" d="M402.364 425.595C405.864 426.275 407.68 425.316 408.442 423.636C408.083 423.887 407.673 424.057 407.241 424.135C406.81 424.212 406.366 424.195 405.942 424.084C403.335 423.484 404.242 420.591 401.893 421.594C399.544 422.597 399.393 422.488 399.072 421.445C398.751 420.402 398.354 421.732 397.229 421.803C397.209 421.803 397.19 421.803 397.172 421.803C396.783 421.811 396.831 421.62 397.01 421.348C397.293 420.923 397.903 420.304 397.652 419.971C397.236 419.417 398.546 419.448 398.47 418.006C398.143 418.632 398.037 419.226 397.729 419.224C397.218 419.224 397.002 418.301 397.002 418.301C396.258 419.136 395.71 420.127 395.397 421.201C395.163 422.553 397.071 424.562 402.364 425.595Z" fill="url(#paint40_linear_1810_1921)"/>
<path d="M398.237 416.181C397.951 415.898 397.583 415.711 397.186 415.647C396.449 415.489 396.398 415.353 396.568 415.132C396.738 414.911 397.794 414.814 398.744 415.766C399.019 415.308 399.392 414.917 399.836 414.62C400.28 414.323 400.784 414.129 401.312 414.05C401.76 414.785 400.883 416.163 399.539 416.871C398.195 417.579 398.239 419.226 397.731 419.223C397.223 419.22 397.004 418.3 397.004 418.3C397.004 418.3 396.914 417.368 398.237 416.181Z" fill="url(#paint41_linear_1810_1921)"/>
<path d="M405.268 415.557C405.291 415.575 405.318 415.588 405.347 415.596C405.375 415.603 405.405 415.605 405.434 415.601C405.463 415.597 405.491 415.588 405.517 415.573C405.542 415.558 405.565 415.539 405.582 415.515C405.6 415.492 405.614 415.465 405.621 415.437C405.629 415.408 405.631 415.379 405.627 415.35C405.623 415.32 405.613 415.292 405.599 415.267C405.584 415.241 405.564 415.219 405.541 415.201C405.303 415.09 405.058 414.996 404.807 414.919C404.946 415.142 405.1 415.355 405.268 415.557Z" fill="#FBDA91"/>
<path d="M403.961 417.562C403.984 417.581 404.011 417.595 404.04 417.603C404.068 417.612 404.099 417.614 404.128 417.611C404.158 417.607 404.187 417.598 404.213 417.583C404.239 417.568 404.262 417.548 404.28 417.525C404.298 417.501 404.311 417.474 404.319 417.445C404.327 417.416 404.328 417.386 404.324 417.356C404.32 417.327 404.31 417.298 404.294 417.272C404.279 417.247 404.258 417.225 404.234 417.207C403.996 417.096 403.752 417.002 403.501 416.925C403.64 417.147 403.793 417.36 403.961 417.562Z" fill="#FBDA91"/>
<path d="M404.755 420.425C404.778 420.444 404.805 420.458 404.834 420.466C404.862 420.475 404.893 420.477 404.922 420.474C404.952 420.47 404.981 420.461 405.007 420.446C405.033 420.431 405.056 420.411 405.074 420.388C405.092 420.364 405.105 420.337 405.113 420.308C405.121 420.279 405.122 420.249 405.118 420.219C405.114 420.19 405.104 420.161 405.088 420.135C405.073 420.11 405.052 420.088 405.028 420.07C404.79 419.959 404.546 419.865 404.295 419.788C404.434 420.011 404.587 420.223 404.755 420.425Z" fill="#FBDA91"/>
<path d="M399.565 423.794C399.585 423.819 399.61 423.84 399.638 423.855C399.667 423.87 399.698 423.879 399.73 423.881C399.763 423.882 399.795 423.877 399.825 423.866C399.855 423.854 399.882 423.837 399.905 423.814C399.928 423.791 399.945 423.763 399.956 423.733C399.968 423.703 399.972 423.671 399.97 423.639C399.968 423.607 399.959 423.575 399.944 423.547C399.929 423.518 399.908 423.494 399.882 423.474C399.634 423.31 399.377 423.161 399.112 423.028C399.247 423.292 399.399 423.548 399.565 423.794Z" fill="#F9E2B2"/>
<path d="M402.4 422.263C402.423 422.281 402.45 422.294 402.478 422.302C402.507 422.309 402.537 422.311 402.566 422.307C402.595 422.304 402.623 422.294 402.649 422.279C402.674 422.264 402.697 422.245 402.715 422.221C402.732 422.198 402.746 422.171 402.753 422.143C402.761 422.115 402.763 422.085 402.759 422.056C402.755 422.026 402.745 421.998 402.731 421.973C402.716 421.947 402.696 421.925 402.673 421.907C402.435 421.796 402.19 421.702 401.939 421.625C402.078 421.848 402.232 422.061 402.4 422.263Z" fill="#F9E2B2"/>
<path d="M399.873 421.269C399.92 421.305 399.98 421.321 400.039 421.313C400.098 421.306 400.151 421.275 400.188 421.227C400.224 421.18 400.24 421.121 400.232 421.062C400.224 421.003 400.193 420.949 400.146 420.913C399.908 420.802 399.663 420.708 399.412 420.631C399.551 420.854 399.705 421.067 399.873 421.269Z" fill="#FBDA91"/>
<path d="M397.173 421.804C397.146 421.704 397.073 421.504 397.011 421.349C396.832 421.62 396.784 421.812 397.173 421.804Z" fill="#FBDA91"/>
<path d="M397.044 422.112C397.138 422.1 397.201 421.985 397.184 421.855C397.184 421.844 397.178 421.827 397.174 421.805C396.785 421.813 396.833 421.622 397.012 421.35C396.962 421.217 396.912 421.107 396.912 421.091C396.875 421.36 396.851 421.63 396.843 421.901C396.857 422.029 396.948 422.125 397.044 422.112Z" fill="#F9E2B2"/>
<path d="M407.046 420.742C407.069 420.76 407.096 420.773 407.125 420.781C407.153 420.788 407.183 420.79 407.212 420.786C407.241 420.782 407.269 420.773 407.295 420.758C407.32 420.743 407.343 420.724 407.36 420.7C407.378 420.677 407.392 420.65 407.399 420.622C407.407 420.593 407.409 420.564 407.405 420.535C407.401 420.505 407.391 420.477 407.377 420.452C407.362 420.426 407.342 420.404 407.319 420.386C407.081 420.275 406.836 420.181 406.585 420.104C406.724 420.327 406.878 420.54 407.046 420.742Z" fill="#FBDA91"/>
<path d="M398.47 418.005C398.47 417.997 398.298 417.666 399.013 416.753C399.728 415.84 400.513 415.491 400.533 415.063C400.543 414.824 400.076 414.75 399.663 414.732C400.123 414.33 400.703 414.091 401.312 414.051C401.76 414.786 400.883 416.164 399.539 416.872C399.073 417.129 398.699 417.525 398.47 418.005Z" fill="#6BBC61"/>
<path d="M396.721 467.56C399.28 470.107 401.093 469.134 402.196 467.22C403.299 465.306 403.481 462.901 402.696 461.58C402.467 461.209 402.121 460.926 401.713 460.775C401.304 460.625 400.856 460.615 400.442 460.749C400.416 461.325 399.415 461.764 398.403 461.656C397.391 461.548 396.803 462.481 396.52 462.289C396.237 462.097 396.46 461.505 396.46 461.505C395.734 461.692 395.06 462.038 394.485 462.518C393.852 463.182 394.162 465.014 396.721 467.56Z" fill="url(#paint42_linear_1810_1921)"/>
<path d="M402.04 466.62C402.458 466.109 402.673 465.709 401.84 465.639C401.007 465.569 400.51 465.299 400.462 464.959C400.414 464.619 400.751 464.977 401.17 464.27C401.476 463.752 402.087 464.879 402.442 462.816C402.716 461.222 400.442 460.744 400.442 460.744C400.857 460.61 401.304 460.62 401.713 460.771C402.121 460.921 402.468 461.205 402.696 461.576C403.479 462.897 403.296 465.302 402.196 467.216C402.155 467.287 402.114 467.356 402.071 467.424C401.984 467.12 401.83 466.884 402.04 466.62Z" fill="#C7283A"/>
<path opacity="0.3" d="M396.721 467.559C398.415 469.244 399.781 469.388 400.832 468.738C400.539 468.744 400.247 468.685 399.978 468.568C399.71 468.45 399.47 468.275 399.275 468.055C398.05 466.748 399.632 465.477 397.953 465.155C396.274 464.833 396.228 464.718 396.441 464.02C396.654 463.322 395.935 463.911 395.282 463.53C395.271 463.524 395.26 463.517 395.25 463.509C395.031 463.369 395.129 463.28 395.33 463.196C395.646 463.065 396.216 462.949 396.201 462.67C396.176 462.207 396.893 462.713 397.389 461.882C396.973 462.108 396.689 462.399 396.523 462.282C396.24 462.09 396.463 461.498 396.463 461.498C395.738 461.684 395.063 462.031 394.488 462.511C393.852 463.181 394.163 465.013 396.721 467.559Z" fill="url(#paint43_linear_1810_1921)"/>
<path d="M397.939 460.782C397.885 460.518 397.751 460.276 397.554 460.092C397.203 459.73 397.226 459.635 397.403 459.576C397.58 459.517 398.203 459.857 398.376 460.741C398.699 460.588 399.053 460.509 399.41 460.509C399.768 460.509 400.122 460.588 400.445 460.741C400.42 461.317 399.418 461.756 398.406 461.648C397.394 461.54 396.806 462.473 396.523 462.281C396.24 462.089 396.463 461.497 396.463 461.497C396.463 461.497 396.762 460.952 397.939 460.782Z" fill="url(#paint44_linear_1810_1921)"/>
<path d="M402.08 463.062C402.093 463.1 402.121 463.131 402.157 463.148C402.175 463.156 402.194 463.161 402.214 463.162C402.234 463.163 402.253 463.161 402.272 463.154C402.291 463.147 402.308 463.137 402.323 463.124C402.337 463.111 402.349 463.095 402.358 463.077C402.366 463.059 402.371 463.04 402.372 463.02C402.373 463 402.371 462.981 402.364 462.962C402.274 462.812 402.174 462.668 402.064 462.532C402.057 462.709 402.062 462.886 402.08 463.062Z" fill="#FBDA91"/>
<path d="M400.606 463.689C400.613 463.708 400.623 463.725 400.636 463.74C400.649 463.755 400.665 463.767 400.683 463.775C400.701 463.784 400.72 463.789 400.74 463.79C400.76 463.791 400.78 463.788 400.798 463.782C400.817 463.775 400.834 463.765 400.849 463.752C400.864 463.738 400.876 463.722 400.885 463.704C400.893 463.687 400.898 463.667 400.899 463.647C400.9 463.628 400.898 463.608 400.891 463.589C400.927 463.542 400.946 463.485 400.947 463.426C400.947 463.367 400.929 463.31 400.894 463.262C400.86 463.214 400.811 463.179 400.754 463.162C400.698 463.144 400.638 463.145 400.582 463.165C400.526 463.184 400.479 463.221 400.446 463.27C400.413 463.319 400.396 463.377 400.399 463.436C400.402 463.495 400.423 463.551 400.461 463.597C400.498 463.642 400.549 463.675 400.606 463.689Z" fill="#FBDA91"/>
<path d="M399.98 465.577C399.987 465.596 399.997 465.613 400.01 465.628C400.023 465.642 400.039 465.654 400.057 465.663C400.075 465.671 400.094 465.676 400.114 465.677C400.134 465.678 400.153 465.676 400.172 465.669C400.191 465.662 400.208 465.652 400.223 465.639C400.237 465.626 400.249 465.61 400.258 465.592C400.266 465.574 400.271 465.555 400.272 465.535C400.273 465.515 400.271 465.496 400.264 465.477C400.3 465.43 400.319 465.373 400.32 465.314C400.321 465.255 400.302 465.197 400.267 465.15C400.233 465.102 400.184 465.067 400.127 465.049C400.071 465.032 400.011 465.033 399.955 465.053C399.899 465.072 399.852 465.109 399.819 465.158C399.786 465.207 399.769 465.265 399.772 465.324C399.775 465.383 399.797 465.439 399.834 465.485C399.872 465.531 399.923 465.563 399.98 465.577Z" fill="#FBDA91"/>
<path d="M395.836 465.514C395.84 465.534 395.848 465.552 395.859 465.569C395.87 465.586 395.884 465.6 395.901 465.611C395.918 465.622 395.937 465.63 395.956 465.634C395.976 465.638 395.996 465.638 396.016 465.634C396.036 465.63 396.054 465.622 396.071 465.611C396.088 465.6 396.102 465.586 396.113 465.569C396.124 465.552 396.132 465.533 396.136 465.514C396.14 465.494 396.14 465.474 396.136 465.454C396.187 465.409 396.222 465.349 396.236 465.282C396.249 465.216 396.24 465.147 396.21 465.086C396.18 465.025 396.131 464.976 396.07 464.946C396.009 464.916 395.94 464.906 395.873 464.92C395.807 464.933 395.746 464.968 395.702 465.019C395.657 465.07 395.63 465.135 395.626 465.203C395.622 465.27 395.64 465.338 395.678 465.394C395.716 465.45 395.772 465.492 395.836 465.514Z" fill="#F9E2B2"/>
<path d="M397.984 465.72C397.991 465.739 398.001 465.756 398.014 465.771C398.027 465.785 398.043 465.797 398.061 465.806C398.079 465.815 398.098 465.82 398.118 465.821C398.138 465.822 398.158 465.819 398.176 465.812C398.195 465.806 398.212 465.796 398.227 465.782C398.242 465.769 398.254 465.753 398.263 465.735C398.271 465.717 398.276 465.698 398.277 465.678C398.278 465.658 398.276 465.639 398.269 465.62C398.179 465.47 398.079 465.326 397.969 465.19C397.962 465.367 397.967 465.544 397.984 465.72Z" fill="#F9E2B2"/>
<path d="M396.952 464.226C396.965 464.264 396.993 464.294 397.029 464.312C397.047 464.32 397.066 464.325 397.086 464.326C397.106 464.327 397.125 464.325 397.144 464.318C397.163 464.311 397.18 464.301 397.195 464.288C397.209 464.275 397.221 464.259 397.23 464.241C397.238 464.223 397.243 464.204 397.244 464.184C397.245 464.164 397.243 464.145 397.236 464.126C397.272 464.079 397.291 464.022 397.292 463.963C397.293 463.904 397.274 463.846 397.239 463.799C397.205 463.751 397.156 463.716 397.099 463.698C397.043 463.681 396.983 463.682 396.927 463.702C396.871 463.721 396.824 463.758 396.791 463.807C396.758 463.856 396.741 463.914 396.744 463.973C396.747 464.032 396.769 464.088 396.806 464.134C396.844 464.18 396.895 464.212 396.952 464.226Z" fill="#FBDA91"/>
<path d="M395.249 463.514C395.272 463.447 395.305 463.314 395.329 463.201C395.127 463.285 395.029 463.374 395.249 463.514Z" fill="#FBDA91"/>
<path d="M395.063 463.637C395.12 463.665 395.197 463.625 395.237 463.546C395.237 463.539 395.245 463.528 395.249 463.514C395.03 463.374 395.128 463.285 395.329 463.201C395.351 463.108 395.367 463.03 395.369 463.018C395.248 463.153 395.134 463.295 395.028 463.443C395.008 463.474 395 463.511 395.007 463.547C395.013 463.583 395.033 463.615 395.063 463.637Z" fill="#F9E2B2"/>
<path d="M401.13 466.609C401.137 466.628 401.147 466.645 401.16 466.66C401.173 466.675 401.189 466.687 401.207 466.695C401.225 466.704 401.244 466.709 401.264 466.71C401.284 466.711 401.304 466.708 401.322 466.701C401.341 466.695 401.358 466.685 401.373 466.672C401.388 466.658 401.4 466.642 401.409 466.624C401.417 466.607 401.422 466.587 401.423 466.567C401.424 466.548 401.422 466.528 401.415 466.509C401.325 466.359 401.225 466.215 401.115 466.079C401.108 466.256 401.113 466.433 401.13 466.609Z" fill="#FBDA91"/>
<path d="M397.389 461.887C397.389 461.881 397.419 461.634 398.158 461.394C398.897 461.154 399.464 461.253 399.633 461.021C399.733 460.891 399.496 460.676 399.273 460.511C399.679 460.46 400.091 460.543 400.445 460.748C400.42 461.324 399.418 461.763 398.406 461.655C398.051 461.624 397.696 461.705 397.389 461.887Z" fill="#6BBC61"/>
<path d="M421.311 428.06C420.494 431.576 422.276 432.605 424.483 432.536C426.69 432.467 428.831 431.355 429.541 429.993C429.736 429.603 429.795 429.16 429.708 428.733C429.621 428.306 429.393 427.92 429.061 427.638C428.561 427.921 427.661 427.299 427.217 426.383C426.773 425.467 425.672 425.457 425.687 425.116C425.702 424.775 426.323 424.652 426.323 424.652C425.782 424.134 425.133 423.744 424.423 423.508C423.522 423.315 422.128 424.548 421.311 428.06Z" fill="url(#paint45_linear_1810_1921)"/>
<path d="M424.907 432.088C425.562 432.174 426.016 432.147 425.637 431.403C425.258 430.659 425.226 430.093 425.489 429.873C425.752 429.653 425.626 430.128 426.447 430.112C427.047 430.1 426.413 431.212 428.354 430.428C429.854 429.823 429.062 427.638 429.062 427.638C429.394 427.92 429.621 428.305 429.708 428.732C429.795 429.159 429.736 429.603 429.541 429.992C428.831 431.354 426.691 432.465 424.483 432.535H424.24C424.457 432.301 424.576 432.046 424.907 432.088Z" fill="#C7283A"/>
<path opacity="0.3" d="M421.311 428.06C420.77 430.387 421.368 431.624 422.473 432.175C422.314 431.928 422.21 431.65 422.168 431.359C422.127 431.069 422.15 430.772 422.234 430.491C422.699 428.761 424.613 429.436 423.999 427.842C423.385 426.248 423.463 426.142 424.168 425.958C424.873 425.774 423.994 425.471 423.974 424.716C423.973 424.703 423.973 424.69 423.974 424.677C423.974 424.417 424.105 424.454 424.283 424.577C424.56 424.777 424.959 425.2 425.188 425.04C425.569 424.775 425.516 425.651 426.488 425.635C426.077 425.4 425.682 425.315 425.688 425.11C425.702 424.768 426.324 424.646 426.324 424.646C425.784 424.128 425.134 423.738 424.424 423.502C423.518 423.315 422.128 424.548 421.311 428.06Z" fill="url(#paint46_linear_1810_1921)"/>
<path d="M427.71 425.527C427.907 425.343 428.041 425.102 428.094 424.837C428.217 424.348 428.31 424.317 428.453 424.437C428.596 424.557 428.636 425.265 427.975 425.877C428.275 426.072 428.527 426.331 428.715 426.636C428.903 426.94 429.021 427.283 429.061 427.638C428.561 427.92 427.661 427.298 427.217 426.382C426.773 425.466 425.673 425.456 425.687 425.115C425.701 424.774 426.323 424.651 426.323 424.651C426.323 424.651 426.949 424.614 427.71 425.527Z" fill="url(#paint47_linear_1810_1921)"/>
<path d="M427.959 430.249C427.946 430.264 427.937 430.282 427.931 430.3C427.925 430.319 427.923 430.339 427.925 430.359C427.927 430.378 427.932 430.397 427.942 430.415C427.951 430.432 427.963 430.448 427.979 430.46C427.994 430.473 428.011 430.482 428.03 430.488C428.049 430.494 428.069 430.496 428.088 430.494C428.108 430.493 428.127 430.487 428.144 430.478C428.162 430.469 428.177 430.456 428.19 430.441C428.27 430.284 428.338 430.123 428.396 429.957C428.244 430.044 428.098 430.142 427.959 430.249Z" fill="#FBDA91"/>
<path d="M426.647 429.324C426.622 429.355 426.609 429.394 426.613 429.434C426.617 429.474 426.636 429.511 426.667 429.536C426.698 429.561 426.737 429.574 426.777 429.57C426.817 429.566 426.854 429.547 426.879 429.516C426.959 429.359 427.027 429.198 427.085 429.032C426.933 429.119 426.786 429.217 426.647 429.324Z" fill="#FBDA91"/>
<path d="M424.712 429.786C424.699 429.801 424.69 429.819 424.684 429.838C424.679 429.856 424.677 429.876 424.678 429.896C424.68 429.916 424.686 429.935 424.695 429.952C424.705 429.969 424.717 429.985 424.733 429.997C424.748 430.01 424.765 430.019 424.784 430.025C424.803 430.031 424.823 430.033 424.843 430.031C424.862 430.029 424.881 430.023 424.899 430.014C424.916 430.005 424.931 429.992 424.944 429.977C425.023 429.82 425.092 429.659 425.15 429.493C424.997 429.58 424.851 429.678 424.712 429.786Z" fill="#FBDA91"/>
<path d="M422.585 426.23C422.567 426.242 422.552 426.259 422.541 426.277C422.53 426.296 422.523 426.317 422.52 426.339C422.518 426.361 422.521 426.383 422.528 426.403C422.535 426.424 422.546 426.443 422.561 426.459C422.576 426.475 422.594 426.487 422.614 426.496C422.635 426.504 422.656 426.508 422.678 426.507C422.7 426.506 422.721 426.5 422.741 426.49C422.76 426.48 422.777 426.466 422.791 426.449C422.907 426.289 423.013 426.122 423.108 425.949C422.928 426.032 422.753 426.126 422.585 426.23Z" fill="#F9E2B2"/>
<path d="M423.541 428.165C423.528 428.18 423.519 428.198 423.513 428.217C423.508 428.235 423.506 428.255 423.507 428.275C423.509 428.295 423.515 428.314 423.524 428.331C423.534 428.349 423.546 428.364 423.562 428.376C423.577 428.389 423.594 428.398 423.613 428.404C423.632 428.41 423.652 428.412 423.672 428.41C423.691 428.408 423.71 428.402 423.728 428.393C423.745 428.384 423.76 428.371 423.773 428.356C423.853 428.2 423.922 428.038 423.979 427.872C423.826 427.959 423.68 428.057 423.541 428.165Z" fill="#F9E2B2"/>
<path d="M424.267 426.5C424.242 426.531 424.229 426.57 424.233 426.61C424.237 426.649 424.256 426.686 424.287 426.711C424.317 426.737 424.357 426.749 424.396 426.745C424.436 426.742 424.473 426.723 424.498 426.692C424.578 426.535 424.647 426.374 424.705 426.208C424.553 426.295 424.406 426.393 424.267 426.5Z" fill="#FBDA91"/>
<path d="M423.975 424.678C424.045 424.663 424.175 424.619 424.284 424.578C424.107 424.455 423.98 424.418 423.975 424.678Z" fill="#FBDA91"/>
<path d="M423.772 424.585C423.778 424.648 423.853 424.693 423.94 424.685C423.952 424.683 423.963 424.681 423.974 424.678C423.974 424.418 424.105 424.455 424.283 424.578C424.373 424.548 424.448 424.52 424.459 424.516C424.28 424.484 424.1 424.463 423.919 424.451C423.832 424.462 423.767 424.52 423.772 424.585Z" fill="#F9E2B2"/>
<path d="M424.444 431.311C424.431 431.326 424.422 431.344 424.416 431.362C424.41 431.381 424.408 431.401 424.41 431.421C424.414 431.46 424.433 431.497 424.464 431.522C424.494 431.548 424.534 431.56 424.573 431.556C424.613 431.553 424.65 431.534 424.675 431.503C424.755 431.346 424.823 431.185 424.881 431.019C424.729 431.106 424.583 431.204 424.444 431.311Z" fill="#FBDA91"/>
<path d="M426.485 425.639C426.491 425.639 426.717 425.531 427.31 426.032C427.903 426.533 428.118 427.069 428.404 427.09C428.564 427.102 428.624 426.79 428.647 426.516C428.904 426.834 429.05 427.228 429.062 427.637C428.562 427.919 427.662 427.297 427.218 426.381C427.057 426.063 426.801 425.803 426.485 425.639Z" fill="#6BBC61"/>
<path d="M399.233 440.028C401.033 441.376 402.071 440.615 402.585 439.337C402.839 438.777 402.955 438.165 402.923 437.551C402.891 436.937 402.711 436.34 402.399 435.81C402.225 435.601 401.987 435.456 401.721 435.399C401.456 435.342 401.178 435.375 400.934 435.494C400.969 435.852 400.389 436.211 399.755 436.234C399.121 436.257 398.839 436.885 398.647 436.79C398.455 436.695 398.541 436.311 398.541 436.311C398.109 436.49 397.723 436.763 397.411 437.111C397.077 437.576 397.429 438.68 399.233 440.028Z" fill="url(#paint48_linear_1810_1921)"/>
<path d="M402.436 438.983C402.649 438.63 402.747 438.364 402.227 438.394C401.707 438.424 401.376 438.301 401.316 438.094C401.256 437.887 401.497 438.079 401.692 437.606C401.836 437.259 402.312 437.906 402.35 436.596C402.379 435.589 400.933 435.496 400.933 435.496C401.177 435.377 401.454 435.343 401.72 435.401C401.986 435.458 402.224 435.603 402.398 435.812C402.71 436.342 402.89 436.939 402.922 437.553C402.954 438.167 402.838 438.779 402.584 439.339C402.564 439.386 402.545 439.433 402.524 439.478C402.445 439.293 402.324 439.161 402.436 438.983Z" fill="#C7283A"/>
<path opacity="0.3" d="M399.233 440.028C400.427 440.92 401.284 440.889 401.875 440.395C401.694 440.424 401.509 440.413 401.333 440.364C401.157 440.315 400.993 440.228 400.854 440.109C399.983 439.409 400.848 438.486 399.783 438.437C398.718 438.388 398.683 438.319 398.749 437.869C398.815 437.419 398.426 437.847 397.99 437.669L397.968 437.66C397.821 437.593 397.873 437.53 397.99 437.46C398.174 437.351 398.516 437.229 398.482 437.06C398.426 436.775 398.913 437.025 399.146 436.469C398.909 436.645 398.762 436.849 398.646 436.792C398.455 436.698 398.54 436.313 398.54 436.313C398.109 436.492 397.722 436.766 397.41 437.113C397.077 437.576 397.429 438.68 399.233 440.028Z" fill="url(#paint49_linear_1810_1921)"/>
<path d="M399.39 435.737C399.333 435.578 399.228 435.441 399.09 435.345C398.841 435.152 398.847 435.092 398.951 435.039C399.055 434.986 399.47 435.139 399.651 435.673C399.837 435.55 400.049 435.471 400.27 435.44C400.491 435.409 400.716 435.427 400.929 435.493C400.964 435.851 400.384 436.21 399.75 436.233C399.116 436.256 398.834 436.883 398.643 436.789C398.452 436.695 398.537 436.309 398.537 436.309C398.537 436.309 398.677 435.944 399.39 435.737Z" fill="url(#paint50_linear_1810_1921)"/>
<path d="M402.149 436.779C402.162 436.798 402.181 436.813 402.203 436.819C402.226 436.825 402.25 436.822 402.27 436.812C402.291 436.802 402.307 436.784 402.316 436.762C402.324 436.741 402.324 436.717 402.316 436.695C402.246 436.61 402.171 436.53 402.091 436.456C402.103 436.565 402.122 436.673 402.149 436.779Z" fill="#FBDA91"/>
<path d="M401.295 437.296C401.308 437.315 401.327 437.33 401.349 437.336C401.372 437.342 401.396 437.339 401.416 437.329C401.437 437.319 401.453 437.301 401.462 437.279C401.47 437.258 401.47 437.234 401.462 437.212C401.392 437.127 401.317 437.047 401.237 436.973C401.249 437.082 401.269 437.19 401.295 437.296Z" fill="#FBDA91"/>
<path d="M401.071 438.517C401.076 438.528 401.084 438.538 401.093 438.546C401.103 438.554 401.113 438.56 401.125 438.564C401.137 438.568 401.149 438.57 401.162 438.569C401.174 438.568 401.186 438.565 401.197 438.559C401.208 438.554 401.218 438.546 401.226 438.537C401.234 438.528 401.241 438.517 401.244 438.505C401.248 438.494 401.25 438.481 401.249 438.469C401.248 438.457 401.245 438.445 401.239 438.434C401.17 438.349 401.095 438.269 401.015 438.195C401.026 438.303 401.045 438.411 401.071 438.517Z" fill="#FBDA91"/>
<path d="M398.507 438.843C398.51 438.856 398.515 438.869 398.523 438.88C398.531 438.891 398.541 438.9 398.553 438.907C398.565 438.914 398.578 438.918 398.592 438.919C398.605 438.921 398.619 438.919 398.632 438.914C398.645 438.91 398.657 438.902 398.667 438.893C398.676 438.883 398.684 438.872 398.689 438.859C398.694 438.846 398.696 438.833 398.695 438.819C398.694 438.805 398.69 438.792 398.684 438.78C398.621 438.673 398.551 438.571 398.476 438.473C398.479 438.597 398.489 438.72 398.507 438.843Z" fill="#F9E2B2"/>
<path d="M399.851 438.78C399.856 438.792 399.863 438.803 399.872 438.813C399.881 438.822 399.892 438.83 399.905 438.834C399.917 438.839 399.93 438.841 399.943 438.841C399.957 438.84 399.969 438.837 399.981 438.831C399.993 438.825 400.003 438.817 400.012 438.806C400.02 438.796 400.026 438.784 400.03 438.772C400.033 438.759 400.034 438.746 400.032 438.732C400.03 438.719 400.025 438.707 400.018 438.696C399.948 438.611 399.873 438.531 399.793 438.457C399.805 438.566 399.824 438.674 399.851 438.78Z" fill="#F9E2B2"/>
<path d="M399.083 437.949C399.094 437.971 399.113 437.988 399.137 437.996C399.16 438.004 399.186 438.002 399.208 437.991C399.23 437.98 399.247 437.961 399.255 437.937C399.263 437.914 399.261 437.888 399.25 437.866C399.18 437.781 399.105 437.702 399.025 437.627C399.037 437.736 399.056 437.843 399.083 437.949Z" fill="#FBDA91"/>
<path d="M397.968 437.66C397.976 437.616 397.984 437.53 397.99 437.46C397.873 437.529 397.82 437.592 397.968 437.66Z" fill="#FBDA91"/>
<path d="M397.863 437.755C397.901 437.767 397.945 437.735 397.963 437.683V437.662C397.815 437.595 397.868 437.532 397.985 437.462C397.991 437.402 397.993 437.353 397.993 437.346C397.93 437.44 397.873 437.538 397.82 437.638C397.811 437.659 397.81 437.683 397.818 437.705C397.826 437.727 397.842 437.745 397.863 437.755Z" fill="#F9E2B2"/>
<path d="M401.875 439.053C401.88 439.065 401.887 439.077 401.896 439.086C401.905 439.095 401.917 439.103 401.929 439.107C401.941 439.112 401.954 439.114 401.967 439.114C401.981 439.113 401.993 439.11 402.005 439.104C402.017 439.098 402.027 439.09 402.036 439.079C402.044 439.069 402.05 439.057 402.054 439.045C402.057 439.032 402.058 439.019 402.056 439.006C402.054 438.993 402.049 438.98 402.042 438.969C401.973 438.884 401.897 438.804 401.817 438.73C401.829 438.839 401.849 438.947 401.875 439.053Z" fill="#FBDA91"/>
<path d="M399.142 436.466C399.142 436.466 399.142 436.306 399.574 436.093C400.006 435.88 400.369 435.893 400.453 435.733C400.5 435.645 400.338 435.533 400.185 435.45C400.431 435.383 400.692 435.399 400.929 435.494C400.964 435.852 400.384 436.211 399.75 436.234C399.528 436.246 399.315 436.327 399.142 436.466Z" fill="#6BBC61"/>
<path d="M408.729 448.234C408.946 449.734 409.799 449.862 410.65 449.498C411.037 449.353 411.383 449.117 411.659 448.81C411.935 448.504 412.133 448.135 412.237 447.735C412.254 447.553 412.209 447.371 412.11 447.217C412.011 447.063 411.863 446.947 411.69 446.888C411.537 447.075 411.09 446.97 410.779 446.679C410.468 446.388 410.035 446.553 409.988 446.418C409.941 446.283 410.165 446.14 410.165 446.14C409.875 446.02 409.562 445.966 409.249 445.982C408.87 446.046 408.514 446.737 408.729 448.234Z" fill="url(#paint51_linear_1810_1921)"/>
<path d="M410.747 449.259C411.016 449.193 411.188 449.112 410.927 448.88C410.666 448.648 410.568 448.432 410.637 448.306C410.706 448.18 410.73 448.384 411.047 448.253C411.28 448.153 411.201 448.688 411.84 448.086C412.333 447.622 411.692 446.886 411.692 446.886C411.865 446.946 412.012 447.062 412.111 447.215C412.21 447.369 412.255 447.551 412.238 447.733C412.134 448.133 411.936 448.502 411.66 448.808C411.384 449.115 411.038 449.351 410.651 449.496L410.557 449.535C410.606 449.408 410.611 449.292 410.747 449.259Z" fill="#C7283A"/>
<path opacity="0.3" d="M408.728 448.234C408.872 449.225 409.294 449.617 409.809 449.663C409.709 449.591 409.626 449.499 409.566 449.392C409.505 449.284 409.469 449.166 409.459 449.043C409.378 448.297 410.227 448.269 409.745 447.743C409.263 447.217 409.277 447.163 409.524 446.983C409.771 446.803 409.382 446.819 409.259 446.527L409.253 446.512C409.215 446.412 409.27 446.405 409.359 446.428C409.497 446.463 409.718 446.568 409.783 446.471C409.892 446.309 410.004 446.659 410.383 446.506C410.183 446.477 410.019 446.506 409.991 446.423C409.945 446.287 410.168 446.145 410.168 446.145C409.878 446.025 409.565 445.971 409.252 445.987C408.869 446.046 408.512 446.737 408.728 448.234Z" fill="url(#paint52_linear_1810_1921)"/>
<path d="M410.841 446.275C410.889 446.173 410.905 446.058 410.885 445.947C410.859 445.738 410.885 445.711 410.964 445.736C411.043 445.761 411.164 446.036 410.997 446.372C411.144 446.403 411.282 446.465 411.401 446.555C411.521 446.645 411.619 446.761 411.689 446.893C411.535 447.08 411.089 446.975 410.777 446.684C410.465 446.393 410.033 446.558 409.986 446.423C409.939 446.288 410.164 446.145 410.164 446.145C410.279 446.115 410.4 446.111 410.517 446.133C410.634 446.156 410.745 446.204 410.841 446.275Z" fill="url(#paint53_linear_1810_1921)"/>
<path d="M411.656 448.077C411.651 448.093 411.653 448.11 411.66 448.125C411.668 448.14 411.681 448.151 411.697 448.156C411.713 448.161 411.73 448.159 411.745 448.152C411.759 448.145 411.77 448.132 411.776 448.116C411.783 448.043 411.785 447.97 411.783 447.896C411.737 447.954 411.694 448.014 411.656 448.077Z" fill="#FBDA91"/>
<path d="M411.005 447.915C411.001 447.93 411.003 447.947 411.011 447.96C411.019 447.974 411.031 447.985 411.046 447.99C411.061 447.995 411.077 447.994 411.092 447.988C411.106 447.981 411.118 447.97 411.124 447.955C411.131 447.882 411.133 447.809 411.131 447.735C411.085 447.792 411.043 447.852 411.005 447.915Z" fill="#FBDA91"/>
<path d="M410.319 448.391C410.314 448.407 410.316 448.424 410.323 448.439C410.331 448.453 410.343 448.465 410.359 448.47C410.375 448.475 410.392 448.474 410.407 448.466C410.422 448.458 410.433 448.445 410.438 448.429C410.446 448.356 410.449 448.283 410.446 448.209C410.4 448.267 410.357 448.328 410.319 448.391Z" fill="#FBDA91"/>
<path d="M408.947 447.326C408.942 447.334 408.938 447.342 408.936 447.352C408.935 447.361 408.935 447.37 408.937 447.379C408.94 447.388 408.944 447.397 408.95 447.404C408.956 447.411 408.964 447.417 408.972 447.421C408.98 447.425 408.99 447.427 408.999 447.427C409.008 447.427 409.017 447.425 409.026 447.421C409.034 447.417 409.042 447.411 409.048 447.404C409.054 447.397 409.058 447.389 409.061 447.38C409.089 447.378 409.116 447.367 409.138 447.348C409.159 447.329 409.174 447.303 409.179 447.275C409.184 447.247 409.18 447.218 409.167 447.193C409.154 447.167 409.133 447.147 409.107 447.135C409.082 447.123 409.052 447.119 409.025 447.125C408.997 447.131 408.972 447.147 408.953 447.168C408.935 447.19 408.924 447.218 408.923 447.246C408.922 447.275 408.93 447.303 408.947 447.326Z" fill="#F9E2B2"/>
<path d="M409.619 447.936C409.614 447.952 409.615 447.969 409.623 447.984C409.631 447.999 409.644 448.01 409.66 448.015C409.668 448.018 409.676 448.019 409.684 448.018C409.693 448.018 409.701 448.015 409.708 448.012C409.715 448.008 409.722 448.003 409.727 447.996C409.732 447.99 409.736 447.983 409.739 447.975C409.746 447.902 409.748 447.828 409.746 447.755C409.7 447.813 409.657 447.873 409.619 447.936Z" fill="#F9E2B2"/>
<path d="M409.644 447.175C409.64 447.19 409.642 447.207 409.65 447.22C409.658 447.234 409.67 447.245 409.685 447.25C409.7 447.255 409.716 447.254 409.731 447.247C409.745 447.241 409.757 447.229 409.763 447.215C409.771 447.142 409.773 447.068 409.77 446.995C409.724 447.052 409.682 447.112 409.644 447.175Z" fill="#FBDA91"/>
<path d="M409.253 446.509C409.278 446.493 409.322 446.456 409.359 446.425C409.27 446.402 409.215 446.406 409.253 446.509Z" fill="#FBDA91"/>
<path d="M409.16 446.503C409.169 446.515 409.183 446.523 409.198 446.526C409.213 446.528 409.228 446.525 409.241 446.516L409.253 446.508C409.215 446.408 409.27 446.401 409.359 446.424L409.418 446.373C409.344 446.388 409.27 446.407 409.198 446.43C409.165 446.446 409.148 446.479 409.16 446.503Z" fill="#F9E2B2"/>
<path d="M410.447 449.026C410.444 449.034 410.442 449.043 410.442 449.051C410.442 449.06 410.444 449.069 410.447 449.077C410.451 449.085 410.456 449.092 410.462 449.098C410.469 449.104 410.476 449.108 410.485 449.111C410.493 449.114 410.502 449.115 410.51 449.114C410.519 449.113 410.528 449.111 410.535 449.106C410.543 449.102 410.55 449.096 410.555 449.089C410.56 449.083 410.564 449.075 410.566 449.066C410.574 448.993 410.576 448.919 410.573 448.846C410.527 448.903 410.485 448.963 410.447 449.026Z" fill="#FBDA91"/>
<path d="M410.38 446.501C410.38 446.501 410.454 446.423 410.762 446.528C411.07 446.633 411.235 446.81 411.35 446.775C411.414 446.755 411.391 446.625 411.357 446.514C411.506 446.599 411.624 446.73 411.691 446.888C411.537 447.075 411.091 446.97 410.779 446.679C410.668 446.58 410.528 446.517 410.38 446.501Z" fill="#6BBC61"/>
<path opacity="0.3" d="M404.261 489.942H393.153L385.113 387.792H397.763L404.261 489.942Z" fill="url(#paint54_linear_1810_1921)"/>
<path opacity="0.3" d="M412.85 489.942H409.473L402.986 387.792H406.543L412.85 489.942Z" fill="url(#paint55_linear_1810_1921)"/>
<path d="M139.747 213.286C143.404 213.286 146.368 210.322 146.368 206.665C146.368 203.008 143.404 200.044 139.747 200.044C136.09 200.044 133.126 203.008 133.126 206.665C133.126 210.322 136.09 213.286 139.747 213.286Z" fill="#6BBC61"/>
<path d="M133.736 203.902H33.341V208.793H133.736V203.902Z" fill="#6BBC61"/>
<path d="M127.372 204.064C127.372 200.625 124.584 197.837 121.145 197.837C117.707 197.837 114.919 200.625 114.919 204.064V248.202C114.919 251.641 117.707 254.429 121.145 254.429C124.584 254.429 127.372 251.641 127.372 248.202V204.064Z" fill="#FF979A"/>
<path d="M122.565 254.429H119.727V284.459H122.565V254.429Z" fill="#D18900"/>
<path d="M122.564 284.46C122.564 284.46 131.471 285.8 132.417 295.26C133.363 304.72 133.061 319.38 133.061 319.38L126.269 303.773L121.145 319.38L115.706 303.615L111.135 319.38C111.135 319.38 108.43 306.336 109.243 296.68C110.056 287.024 119.726 284.463 119.726 284.463L122.564 284.46Z" fill="#D18900"/>
<path d="M95.991 204.064C95.991 200.625 93.2033 197.837 89.7645 197.837C86.3257 197.837 83.538 200.625 83.538 204.064V248.202C83.538 251.641 86.3257 254.429 89.7645 254.429C93.2033 254.429 95.991 251.641 95.991 248.202V204.064Z" fill="#FF979A"/>
<path d="M91.184 254.429H88.346V284.459H91.184V254.429Z" fill="#D18900"/>
<path d="M80.6721 284.46H98.8591C99.7026 284.46 100.538 284.626 101.317 284.949C102.097 285.272 102.805 285.745 103.401 286.342C103.998 286.938 104.471 287.646 104.793 288.426C105.116 289.205 105.282 290.041 105.282 290.884V321.784C105.282 322.628 105.116 323.463 104.793 324.242C104.471 325.022 103.998 325.73 103.401 326.326C102.805 326.923 102.097 327.396 101.317 327.719C100.538 328.042 99.7026 328.208 98.8591 328.208H80.6721C78.9683 328.208 77.3343 327.531 76.1296 326.327C74.9248 325.122 74.248 323.488 74.248 321.784V290.884C74.248 289.18 74.9248 287.546 76.1296 286.342C77.3343 285.137 78.9683 284.46 80.6721 284.46ZM95.992 321.544H98.525V291.121H95.992V321.544ZM88.499 321.544H91.032V291.121H88.499V321.544ZM81.006 321.544H83.538V291.121H81.006V321.544Z" fill="#D18900"/>
<path d="M64.611 204.064C64.611 200.625 61.8233 197.837 58.3845 197.837C54.9457 197.837 52.158 200.625 52.158 204.064V248.202C52.158 251.641 54.9457 254.429 58.3845 254.429C61.8233 254.429 64.611 251.641 64.611 248.202V204.064Z" fill="#FF979A"/>
<path d="M59.804 254.429H56.966V284.459H59.804V254.429Z" fill="#D18900"/>
<path d="M59.803 284.46C59.803 284.46 70.3031 285.642 69.9921 300.46C69.6811 315.278 63.644 321.505 58.385 321.544C53.126 321.583 46.185 311.652 47.292 298.884C48.399 286.116 56.9661 284.46 56.9661 284.46H59.803Z" fill="#D18900"/>
<path d="M0.359009 0V176.02H459.628C455.097 143.52 447.616 110.095 457.197 81.342C472.33 35.942 515.839 0 515.839 0H0.359009Z" fill="#BD7C00"/>
<path d="M167.254 0H162.525V176.02H167.254V0Z" fill="#53A547"/>
<path d="M457.197 81.342C450.868 100.334 451.985 121.365 454.778 142.821H199.179V0H515.839C515.839 0 472.33 35.942 457.197 81.342Z" fill="#FF979A"/>
<path d="M357.509 123.187C362.859 123.187 367.196 118.85 367.196 113.5C367.196 108.15 362.859 103.813 357.509 103.813C352.159 103.813 347.822 108.15 347.822 113.5C347.822 118.85 352.159 123.187 357.509 123.187Z" fill="#905F00"/>
<path d="M130.6 0H0.359009V142.821H130.6V0Z" fill="#FF979A"/>
<path d="M65.48 123.187C70.83 123.187 75.167 118.85 75.167 113.5C75.167 108.15 70.83 103.813 65.48 103.813C60.13 103.813 55.793 108.15 55.793 113.5C55.793 118.85 60.13 123.187 65.48 123.187Z" fill="#905F00"/>
<path d="M193.467 410.221H204.541C205.16 410.208 205.749 409.954 206.182 409.511C206.615 409.069 206.857 408.475 206.857 407.856C206.857 407.238 206.615 406.643 206.182 406.201C205.749 405.759 205.16 405.505 204.541 405.492H193.467C193.152 405.485 192.84 405.542 192.547 405.658C192.255 405.774 191.988 405.947 191.763 406.167C191.539 406.387 191.36 406.65 191.238 406.94C191.116 407.23 191.053 407.542 191.053 407.856C191.053 408.171 191.116 408.483 191.238 408.773C191.36 409.063 191.539 409.326 191.763 409.546C191.988 409.766 192.255 409.939 192.547 410.055C192.84 410.171 193.152 410.227 193.467 410.221Z" fill="#1D164D"/>
<path d="M77.839 410.221H88.9131C89.2277 410.227 89.5403 410.171 89.8329 410.055C90.1254 409.939 90.3919 409.766 90.6167 409.546C90.8414 409.326 91.02 409.063 91.1419 408.773C91.2638 408.483 91.3266 408.171 91.3266 407.856C91.3266 407.542 91.2638 407.23 91.1419 406.94C91.02 406.65 90.8414 406.387 90.6167 406.167C90.3919 405.947 90.1254 405.774 89.8329 405.658C89.5403 405.542 89.2277 405.485 88.9131 405.492H77.839C77.2203 405.505 76.6313 405.759 76.1982 406.201C75.7652 406.643 75.5227 407.238 75.5227 407.856C75.5227 408.475 75.7652 409.069 76.1982 409.511C76.6313 409.954 77.2203 410.208 77.839 410.221Z" fill="#1D164D"/>
<path d="M184.531 397.723H97.848C91.9314 397.723 87.135 402.52 87.135 408.436V505.003C87.135 510.92 91.9314 515.716 97.848 515.716H184.531C190.448 515.716 195.244 510.92 195.244 505.003V408.436C195.244 402.52 190.448 397.723 184.531 397.723Z" fill="url(#paint56_linear_1810_1921)"/>
<path d="M155.353 413.566H162.525C163.144 413.553 163.733 413.298 164.166 412.856C164.599 412.414 164.841 411.82 164.841 411.201C164.841 410.583 164.599 409.988 164.166 409.546C163.733 409.104 163.144 408.85 162.525 408.837H155.353C154.734 408.85 154.145 409.104 153.712 409.546C153.279 409.988 153.037 410.583 153.037 411.201C153.037 411.82 153.279 412.414 153.712 412.856C154.145 413.298 154.734 413.553 155.353 413.566Z" fill="white"/>
<path d="M182.895 459.087C183.206 459.087 183.513 459.026 183.8 458.907C184.087 458.788 184.348 458.614 184.568 458.395C184.787 458.175 184.961 457.914 185.08 457.627C185.199 457.34 185.26 457.033 185.26 456.722V419.022C185.261 416.322 184.189 413.732 182.28 411.822C180.372 409.912 177.782 408.838 175.082 408.837C174.767 408.83 174.455 408.887 174.162 409.003C173.87 409.119 173.603 409.292 173.378 409.512C173.154 409.732 172.975 409.995 172.853 410.285C172.731 410.575 172.668 410.887 172.668 411.201C172.668 411.516 172.731 411.828 172.853 412.118C172.975 412.408 173.154 412.671 173.378 412.891C173.603 413.111 173.87 413.284 174.162 413.4C174.455 413.516 174.767 413.572 175.082 413.566C176.528 413.566 177.915 414.141 178.938 415.164C179.961 416.187 180.535 417.574 180.535 419.02V456.72C180.534 457.347 180.782 457.948 181.225 458.392C181.668 458.836 182.268 459.086 182.895 459.087Z" fill="white"/>
<path d="M87.135 505.583V407.856C87.1348 406.525 87.3969 405.208 87.9061 403.978C88.4153 402.749 89.1617 401.632 90.1026 400.691C91.0436 399.75 92.1607 399.003 93.3901 398.494C94.6196 397.985 95.9373 397.723 97.268 397.723C95.7303 402.819 95.286 408.182 95.9644 413.462C96.6429 418.741 98.4288 423.818 101.205 428.359C110.663 444.334 108.772 445.015 105.934 468.259C103.096 491.503 128.634 500.816 155.817 500.343C183 499.87 185.117 515.713 185.117 515.713H97.268C94.581 515.713 92.0039 514.646 90.1036 512.747C88.2033 510.847 87.1355 508.27 87.135 505.583Z" fill="#C9E2F4"/>
<path opacity="0.3" d="M155.816 397.723C155.816 397.723 134.828 385.181 141.189 352.909C147.55 320.637 177.343 306.428 152.989 281.375C128.635 256.322 94.584 226.957 121.067 199.549C147.55 172.141 155.174 124.849 107.854 108.771C60.5339 92.693 45.4 0 45.4 0H0.355042L6.10352e-05 83.233C6.10352e-05 83.233 30.827 143.766 77.838 147.55C124.849 151.334 97.0379 197.679 77.838 216.596C58.638 235.513 117.283 295.096 130.525 309.288C143.767 323.48 101.848 359.417 141.189 397.724L155.816 397.723Z" fill="url(#paint57_linear_1810_1921)"/>
</g>
<defs>
<linearGradient id="paint0_linear_1810_1921" x1="608.172" y1="148.594" x2="417.882" y2="148.594" gradientUnits="userSpaceOnUse">
<stop stop-color="#402864"/>
<stop offset="1" stop-color="#C39BFF"/>
</linearGradient>
<linearGradient id="paint1_linear_1810_1921" x1="718.272" y1="549.339" x2="424.13" y2="549.339" gradientUnits="userSpaceOnUse">
<stop stop-color="#402864"/>
<stop offset="1" stop-color="#C39BFF"/>
</linearGradient>
<linearGradient id="paint2_linear_1810_1921" x1="468.258" y1="815.021" x2="8.57114" y2="114.47" gradientUnits="userSpaceOnUse">
<stop stop-color="#FF979A"/>
<stop offset="1" stop-color="#DEEA51"/>
</linearGradient>
<linearGradient id="paint3_linear_1810_1921" x1="305.82" y1="576.976" x2="305.82" y2="814.38" gradientUnits="userSpaceOnUse">
<stop stop-color="#8F5138"/>
<stop offset="1" stop-color="#BA6D4D"/>
</linearGradient>
<linearGradient id="paint4_linear_1810_1921" x1="-223.759" y1="554.259" x2="365.105" y2="554.259" gradientUnits="userSpaceOnUse">
<stop stop-color="#8F5138"/>
<stop offset="1" stop-color="#BA6D4D"/>
</linearGradient>
<linearGradient id="paint5_linear_1810_1921" x1="254.437" y1="329.161" x2="324.763" y2="241.496" gradientUnits="userSpaceOnUse">
<stop stop-color="#1D164D"/>
<stop offset="1" stop-color="#4A4975"/>
</linearGradient>
<linearGradient id="paint6_linear_1810_1921" x1="232.993" y1="523.871" x2="361.169" y2="379.809" gradientUnits="userSpaceOnUse">
<stop stop-color="#C9E2F4"/>
<stop offset="1" stop-color="#EAF5FF"/>
</linearGradient>
<linearGradient id="paint7_linear_1810_1921" x1="263.05" y1="307.658" x2="283.421" y2="273.376" gradientUnits="userSpaceOnUse">
<stop stop-color="#FFC0AC"/>
<stop offset="1" stop-color="#FFD6C7"/>
</linearGradient>
<linearGradient id="paint8_linear_1810_1921" x1="196.361" y1="620.956" x2="403.972" y2="518.106" gradientUnits="userSpaceOnUse">
<stop stop-color="#C7283A"/>
<stop offset="1" stop-color="#EF4B4B"/>
</linearGradient>
<linearGradient id="paint9_linear_1810_1921" x1="152.631" y1="476.63" x2="461.547" y2="444.227" gradientUnits="userSpaceOnUse">
<stop stop-color="#C7283A"/>
<stop offset="1" stop-color="#C7283A" stop-opacity="0"/>
</linearGradient>
<linearGradient id="paint10_linear_1810_1921" x1="323.929" y1="448.043" x2="335.515" y2="442.272" gradientUnits="userSpaceOnUse">
<stop stop-color="#FFC0AC"/>
<stop offset="1" stop-color="#FFD6C7"/>
</linearGradient>
<linearGradient id="paint11_linear_1810_1921" x1="278.589" y1="297.036" x2="280.451" y2="291.429" gradientUnits="userSpaceOnUse">
<stop stop-color="#1D164D"/>
<stop offset="1" stop-color="#4A4975"/>
</linearGradient>
<linearGradient id="paint12_linear_1810_1921" x1="215.752" y1="449.235" x2="221.614" y2="420.167" gradientUnits="userSpaceOnUse">
<stop stop-color="#FFC0AC"/>
<stop offset="1" stop-color="#FFD6C7"/>
</linearGradient>
<linearGradient id="paint13_linear_1810_1921" x1="284.65" y1="451.018" x2="281.758" y2="518.726" gradientUnits="userSpaceOnUse">
<stop stop-color="#1D164D"/>
<stop offset="1" stop-color="#4A4975"/>
</linearGradient>
<linearGradient id="paint14_linear_1810_1921" x1="50.9624" y1="388.193" x2="4.93784" y2="444.705" gradientUnits="userSpaceOnUse">
<stop stop-color="#ACD4F3"/>
<stop offset="1" stop-color="#4099F1"/>
</linearGradient>
<linearGradient id="paint15_linear_1810_1921" x1="-15.0818" y1="423.447" x2="22.261" y2="423.447" gradientUnits="userSpaceOnUse">
<stop stop-color="#ACD4F3"/>
<stop offset="1" stop-color="#4099F1"/>
</linearGradient>
<linearGradient id="paint16_linear_1810_1921" x1="34.3571" y1="362.91" x2="35.2562" y2="393.875" gradientUnits="userSpaceOnUse">
<stop stop-color="#ACD4F3"/>
<stop offset="1" stop-color="#4099F1"/>
</linearGradient>
<linearGradient id="paint17_linear_1810_1921" x1="59.6313" y1="406.576" x2="92.6259" y2="395.616" gradientUnits="userSpaceOnUse">
<stop stop-color="#FFC0AC"/>
<stop offset="1" stop-color="#FFD6C7"/>
</linearGradient>
<linearGradient id="paint18_linear_1810_1921" x1="23.8722" y1="403.762" x2="59.3874" y2="391.964" gradientUnits="userSpaceOnUse">
<stop stop-color="#FFC0AC"/>
<stop offset="1" stop-color="#FFD6C7"/>
</linearGradient>
<linearGradient id="paint19_linear_1810_1921" x1="86.1351" y1="411.685" x2="74.4844" y2="415.223" gradientUnits="userSpaceOnUse">
<stop stop-color="#FFB965"/>
<stop offset="1" stop-color="#FF8A5F"/>
</linearGradient>
<linearGradient id="paint20_linear_1810_1921" x1="83.2082" y1="385.368" x2="65.3516" y2="399.894" gradientUnits="userSpaceOnUse">
<stop stop-color="#DBE42C"/>
<stop offset="1" stop-color="#6AD419"/>
</linearGradient>
<linearGradient id="paint21_linear_1810_1921" x1="66.2169" y1="410.686" x2="63.7185" y2="424.781" gradientUnits="userSpaceOnUse">
<stop stop-color="#DBE42C"/>
<stop offset="1" stop-color="#6AD419"/>
</linearGradient>
<linearGradient id="paint22_linear_1810_1921" x1="64.6897" y1="455.682" x2="60.1764" y2="419.692" gradientUnits="userSpaceOnUse">
<stop stop-color="#C7283A"/>
<stop offset="1" stop-color="#EF4B4B"/>
</linearGradient>
<linearGradient id="paint23_linear_1810_1921" x1="57.5373" y1="427.674" x2="23.39" y2="437.452" gradientUnits="userSpaceOnUse">
<stop stop-color="white"/>
<stop offset="1" stop-color="white" stop-opacity="0"/>
</linearGradient>
<linearGradient id="paint24_linear_1810_1921" x1="56.7388" y1="419.614" x2="59.5346" y2="418.641" gradientUnits="userSpaceOnUse">
<stop stop-color="#8F5138"/>
<stop offset="1" stop-color="#BA6D4D"/>
</linearGradient>
<linearGradient id="paint25_linear_1810_1921" x1="25.6693" y1="566.393" x2="67.5374" y2="438.247" gradientUnits="userSpaceOnUse">
<stop stop-color="#FFC0AC"/>
<stop offset="1" stop-color="#FFD6C7"/>
</linearGradient>
<linearGradient id="paint26_linear_1810_1921" x1="11.3373" y1="489.063" x2="-50.1378" y2="489.063" gradientUnits="userSpaceOnUse">
<stop stop-color="#FFC0AC"/>
<stop offset="1" stop-color="#FFD6C7"/>
</linearGradient>
<linearGradient id="paint27_linear_1810_1921" x1="233.452" y1="481.871" x2="233.333" y2="600.197" gradientUnits="userSpaceOnUse">
<stop stop-color="#FFB965"/>
<stop offset="1" stop-color="#FF8A5F"/>
</linearGradient>
<linearGradient id="paint28_linear_1810_1921" x1="412.329" y1="385.207" x2="415.384" y2="380.108" gradientUnits="userSpaceOnUse">
<stop stop-color="#1D164D"/>
<stop offset="1" stop-color="#4A4975"/>
</linearGradient>
<linearGradient id="paint29_linear_1810_1921" x1="406.187" y1="397.956" x2="406.29" y2="371.61" gradientUnits="userSpaceOnUse">
<stop stop-color="#C9E2F4"/>
<stop offset="1" stop-color="#EAF5FF"/>
</linearGradient>
<linearGradient id="paint30_linear_1810_1921" x1="382.876" y1="483.711" x2="468.301" y2="438.806" gradientUnits="userSpaceOnUse">
<stop stop-color="#C9E2F4"/>
<stop offset="1" stop-color="#EAF5FF"/>
</linearGradient>
<linearGradient id="paint31_linear_1810_1921" x1="396.831" y1="544.433" x2="428.197" y2="485.584" gradientUnits="userSpaceOnUse">
<stop stop-color="#1D164D"/>
<stop offset="1" stop-color="#4A4975"/>
</linearGradient>
<linearGradient id="paint32_linear_1810_1921" x1="408.31" y1="525.764" x2="414.461" y2="506.038" gradientUnits="userSpaceOnUse">
<stop stop-color="#C9E2F4"/>
<stop offset="1" stop-color="#EAF5FF"/>
</linearGradient>
<linearGradient id="paint33_linear_1810_1921" x1="423.036" y1="513.052" x2="418.601" y2="516.759" gradientUnits="userSpaceOnUse">
<stop stop-color="#1D164D"/>
<stop offset="1" stop-color="#4A4975"/>
</linearGradient>
<linearGradient id="paint34_linear_1810_1921" x1="432.954" y1="438.143" x2="463.109" y2="438.143" gradientUnits="userSpaceOnUse">
<stop stop-color="#C9E2F4"/>
<stop offset="1" stop-color="#EAF5FF"/>
</linearGradient>
<linearGradient id="paint35_linear_1810_1921" x1="442.494" y1="392.166" x2="385.114" y2="392.166" gradientUnits="userSpaceOnUse">
<stop stop-color="#1D164D"/>
<stop offset="1" stop-color="#4A4975"/>
</linearGradient>
<linearGradient id="paint36_linear_1810_1921" x1="479.627" y1="687.594" x2="462.179" y2="664.017" gradientUnits="userSpaceOnUse">
<stop stop-color="#C7283A"/>
<stop offset="1" stop-color="#EF4B4B"/>
</linearGradient>
<linearGradient id="paint37_linear_1810_1921" x1="471.482" y1="670.63" x2="438.786" y2="669.585" gradientUnits="userSpaceOnUse">
<stop stop-color="white"/>
<stop offset="1" stop-color="white" stop-opacity="0"/>
</linearGradient>
<linearGradient id="paint38_linear_1810_1921" x1="467.442" y1="665.959" x2="466.919" y2="662.024" gradientUnits="userSpaceOnUse">
<stop stop-color="#6BBC61"/>
<stop offset="1" stop-color="#A7DF63"/>
</linearGradient>
<linearGradient id="paint39_linear_1810_1921" x1="436.486" y1="671.329" x2="424.156" y2="651.357" gradientUnits="userSpaceOnUse">
<stop stop-color="#C7283A"/>
<stop offset="1" stop-color="#EF4B4B"/>
</linearGradient>
<linearGradient id="paint40_linear_1810_1921" x1="429.867" y1="658.291" x2="404.418" y2="652.914" gradientUnits="userSpaceOnUse">
<stop stop-color="white"/>
<stop offset="1" stop-color="white" stop-opacity="0"/>
</linearGradient>
<linearGradient id="paint41_linear_1810_1921" x1="426.615" y1="654.512" x2="426.188" y2="651.361" gradientUnits="userSpaceOnUse">
<stop stop-color="#6BBC61"/>
<stop offset="1" stop-color="#A7DF63"/>
</linearGradient>
<linearGradient id="paint42_linear_1810_1921" x1="458.363" y1="691.709" x2="450.252" y2="678.216" gradientUnits="userSpaceOnUse">
<stop stop-color="#C7283A"/>
<stop offset="1" stop-color="#EF4B4B"/>
</linearGradient>
<linearGradient id="paint43_linear_1810_1921" x1="453.934" y1="682.619" x2="436.387" y2="681.607" gradientUnits="userSpaceOnUse">
<stop stop-color="white"/>
<stop offset="1" stop-color="white" stop-opacity="0"/>
</linearGradient>
<linearGradient id="paint44_linear_1810_1921" x1="451.747" y1="679.626" x2="451.629" y2="677.51" gradientUnits="userSpaceOnUse">
<stop stop-color="#6BBC61"/>
<stop offset="1" stop-color="#A7DF63"/>
</linearGradient>
<linearGradient id="paint45_linear_1810_1921" x1="494.515" y1="659.454" x2="485.121" y2="646.826" gradientUnits="userSpaceOnUse">
<stop stop-color="#C7283A"/>
<stop offset="1" stop-color="#EF4B4B"/>
</linearGradient>
<linearGradient id="paint46_linear_1810_1921" x1="490.306" y1="650.464" x2="472.746" y2="649.954" gradientUnits="userSpaceOnUse">
<stop stop-color="white"/>
<stop offset="1" stop-color="white" stop-opacity="0"/>
</linearGradient>
<linearGradient id="paint47_linear_1810_1921" x1="488.067" y1="647.877" x2="487.814" y2="645.763" gradientUnits="userSpaceOnUse">
<stop stop-color="#6BBC61"/>
<stop offset="1" stop-color="#A7DF63"/>
</linearGradient>
<linearGradient id="paint48_linear_1810_1921" x1="445.953" y1="663.726" x2="440.778" y2="655.363" gradientUnits="userSpaceOnUse">
<stop stop-color="#C7283A"/>
<stop offset="1" stop-color="#EF4B4B"/>
</linearGradient>
<linearGradient id="paint49_linear_1810_1921" x1="443.088" y1="658.024" x2="432.162" y2="657.144" gradientUnits="userSpaceOnUse">
<stop stop-color="white"/>
<stop offset="1" stop-color="white" stop-opacity="0"/>
</linearGradient>
<linearGradient id="paint50_linear_1810_1921" x1="441.705" y1="656.598" x2="441.617" y2="655.276" gradientUnits="userSpaceOnUse">
<stop stop-color="#6BBC61"/>
<stop offset="1" stop-color="#A7DF63"/>
</linearGradient>
<linearGradient id="paint51_linear_1810_1921" x1="451.907" y1="679.396" x2="448.038" y2="674.056" gradientUnits="userSpaceOnUse">
<stop stop-color="#C7283A"/>
<stop offset="1" stop-color="#EF4B4B"/>
</linearGradient>
<linearGradient id="paint52_linear_1810_1921" x1="450.16" y1="675.225" x2="442.795" y2="675.105" gradientUnits="userSpaceOnUse">
<stop stop-color="white"/>
<stop offset="1" stop-color="white" stop-opacity="0"/>
</linearGradient>
<linearGradient id="paint53_linear_1810_1921" x1="449.179" y1="675.048" x2="449.12" y2="674.16" gradientUnits="userSpaceOnUse">
<stop stop-color="#6BBC61"/>
<stop offset="1" stop-color="#A7DF63"/>
</linearGradient>
<linearGradient id="paint54_linear_1810_1921" x1="371.748" y1="477.071" x2="422.371" y2="474.107" gradientUnits="userSpaceOnUse">
<stop stop-color="#C9E2F4"/>
<stop offset="1" stop-color="#EAF5FF"/>
</linearGradient>
<linearGradient id="paint55_linear_1810_1921" x1="385.793" y1="475.743" x2="431.229" y2="475.037" gradientUnits="userSpaceOnUse">
<stop stop-color="#C9E2F4"/>
<stop offset="1" stop-color="#EAF5FF"/>
</linearGradient>
<linearGradient id="paint56_linear_1810_1921" x1="108.324" y1="511.468" x2="185.053" y2="404.12" gradientUnits="userSpaceOnUse">
<stop stop-color="#C9E2F4"/>
<stop offset="1" stop-color="#EAF5FF"/>
</linearGradient>
<linearGradient id="paint57_linear_1810_1921" x1="178.168" y1="388.974" x2="-96.7154" y2="270.945" gradientUnits="userSpaceOnUse">
<stop stop-color="white"/>
<stop offset="1" stop-color="white" stop-opacity="0"/>
</linearGradient>
<clipPath id="clip0_1810_1921">
<rect width="718.272" height="726.925" fill="white"/>
</clipPath>
</defs>
</svg>
